<?xml version="1.0" encoding="UTF-8" standalone="no"?><!DOCTYPE svg PUBLIC "-//W3C//DTD SVG 1.1//EN" "http://www.w3.org/Graphics/SVG/1.1/DTD/svg11.dtd"><svg width="100%" height="100%" viewBox="0 0 2325 1775" version="1.1" xmlns="http://www.w3.org/2000/svg" xmlns:xlink="http://www.w3.org/1999/xlink" xml:space="preserve" xmlns:serif="http://www.serif.com/" style="fill-rule:evenodd;clip-rule:evenodd;stroke-linejoin:round;stroke-miterlimit:2;"><g><path d="M674.754,1419.04l0,79.058c0,14.862 -3.267,24.475 -10.704,31.916c-8.521,8.334 -21.212,12.68 -36.621,12.68c-15.604,-0 -28.287,-4.346 -36.812,-12.68c-7.434,-7.441 -10.704,-17.054 -10.704,-31.916l-0,-79.058l17.229,-0l-0,81.404c-0,17.054 11.246,27.208 30.287,27.208c18.858,0 30.092,-10.154 30.092,-27.208l-0,-81.404l17.233,-0Z" style="fill:#08a79d;fill-rule:nonzero;"/><path d="M717.571,1452.4l-0,9.967c8.704,-9.246 15.771,-12.333 27.737,-12.333c10.334,-0 18.863,3.441 23.763,9.616c4.166,5.429 5.8,11.604 5.8,21.759l-0,58.566l-16.684,0l0,-57.3c0,-11.958 -5.445,-17.762 -16.866,-17.762c-14.321,-0 -23.025,8.333 -23.025,21.929l-0,53.133l-16.679,0l-0,-87.575l15.954,0Z" style="fill:#08a79d;fill-rule:nonzero;"/><path d="M888.579,1465.62l-15.775,0l0,54.958c0,5.08 2.363,7.979 6.529,7.979c2.363,0 4.717,-0.558 9.246,-2.366l0,13.596c-7.254,1.641 -9.971,2.012 -13.958,2.012c-12.509,0 -18.496,-6.716 -18.496,-21.221l0,-54.958l-11.792,0l0,-13.221l11.792,0l0,-27.75l16.679,0l0,27.75l15.775,0l0,13.221Z" style="fill:#08a79d;fill-rule:nonzero;"/><path d="M960.754,1539.98l0,-9.967c-8.7,9.242 -15.771,12.325 -27.737,12.325c-10.334,0 -18.859,-3.437 -23.759,-9.612c-4.166,-5.429 -5.804,-11.604 -5.804,-21.758l0,-58.563l16.683,0l0,57.296c0,11.963 5.446,17.762 16.867,17.762c14.321,0 23.025,-8.333 23.025,-21.929l0,-53.129l16.683,0l0,87.575l-15.958,0Z" style="fill:#08a79d;fill-rule:nonzero;"/><path d="M1017.16,1452.4l0,13.779c3.455,-5.079 4.904,-7.066 7.259,-9.262c3.996,-4.167 10.337,-6.883 15.6,-6.883c3.258,-0 6.341,0.729 9.245,2.179l0,15.045c-3.441,-0.724 -5.266,-0.895 -7.616,-0.895c-13.421,-0 -23.759,11.958 -23.759,27.562l0,46.05l-16.683,0l0,-87.575l15.954,0Z" style="fill:#08a79d;fill-rule:nonzero;"/><path d="M1081,1539.98l-16.679,0l0,-87.575l16.679,0l0,87.575Zm0,-101.546l-16.679,0l0,-19.395l16.679,-0l0,19.395Z" style="fill:#08a79d;fill-rule:nonzero;"/><path d="M1155.71,1479.24c-2.355,-10.879 -8.334,-15.416 -19.938,-15.416c-9.975,-0 -16.683,4.167 -16.683,10.337c-0,4.355 3.079,7.255 10.154,9.063l20.312,5.262c18.309,4.709 25.925,12.329 25.925,25.754c0,17.225 -14.141,28.1 -36.45,28.1c-23.75,0 -37.895,-11.604 -39.708,-32.449l16.496,-0c0.912,11.608 9.617,18.487 23.583,18.487c11.958,0 19.759,-5.262 19.759,-13.429c-0,-5.8 -3.805,-8.871 -13.959,-11.604l-17.408,-4.35c-9.25,-2.346 -14.875,-4.896 -18.504,-8.15c-3.98,-3.459 -6.525,-9.263 -6.525,-15.063c-0,-15.041 13.966,-25.741 33.737,-25.741c12.504,-0 22.838,4.166 29.008,11.608c3.805,4.721 5.434,9.429 6.159,17.591l-15.958,0Z" style="fill:#08a79d;fill-rule:nonzero;"/><path d="M1209.4,1452.4l0,11.063c6.713,-9.988 12.871,-13.429 23.75,-13.429c11.609,-0 18.692,4.541 22.671,14.695c6.9,-10.529 14.15,-14.695 26.479,-14.695c9.246,-0 17.225,3.274 21.575,9.079c3.983,4.891 5.621,11.233 5.621,21.387l-0,59.475l-16.683,0l-0,-58.212c-0,-11.417 -4.704,-16.85 -14.509,-16.85c-11.416,-0 -18.483,8.333 -18.483,21.758l0,53.304l-16.683,0l-0,-59.658c-0,-9.971 -5.079,-15.404 -14.509,-15.404c-11.25,-0 -18.504,8.15 -18.504,20.85l0,54.212l-16.683,0l-0,-87.575l15.958,0Z" style="fill:#08a79d;fill-rule:nonzero;"/><path d="M1346.5,1496.09c0,20.491 9.263,32.283 25.388,32.283c15.787,0 25.216,-11.792 25.216,-31.729c0,-21.033 -9.075,-32.638 -25.387,-32.638c-15.954,0 -25.217,11.771 -25.217,32.084Zm67.459,0.741c-0,26.817 -17.225,45.504 -42.242,45.504c-25.029,0 -42.063,-18.687 -42.063,-46.245c0,-27.38 17.034,-46.054 42.063,-46.054c25.558,-0 42.242,18.491 42.242,46.795Z" style="fill:#08a79d;fill-rule:nonzero;"/><path d="M1503.93,1495.55c0,21.221 8.709,32.825 24.85,32.825c15.771,0 24.659,-11.604 24.659,-32.283c-0,-20.667 -8.888,-32.271 -24.659,-32.271c-15.791,-0 -24.85,11.604 -24.85,31.729Zm0.909,-43.871l-0,9.592c8.15,-7.959 15.962,-11.417 26.654,-11.417c23.396,0 38.796,18.504 38.796,46.979c-0,27.73 -14.504,45.504 -37.342,45.504c-11.796,0 -21.408,-4.179 -28.108,-12.325l-0,37.713l-16.68,0l0,-116.046l16.68,0Z" style="fill:#08a79d;fill-rule:nonzero;"/><path d="M1644.66,1495.01c-3.087,1.267 -5.987,2.179 -10.337,3.271l-17.038,3.983c-10.158,2.363 -14.695,6.53 -14.695,13.43c-0,7.958 6.529,13.408 16.312,13.408c14.154,0 25.758,-10.342 25.758,-22.858l0,-11.234Zm-54.766,-13.595c0.721,-10.338 2.729,-16.496 7.083,-21.405c5.613,-6.341 16.125,-9.97 28.454,-9.97c21.763,-0 34.088,10.345 34.088,28.475l-0,41.158c-0,6.879 0.912,8.333 4.725,8.333c1.45,0 2.362,-0.171 4.35,-0.896l-0,12.871c-3.996,0.913 -7.438,1.267 -10.879,1.267c-7.975,-0 -11.605,-3.442 -13.055,-11.792c-8.891,8.892 -18.504,12.883 -30.279,12.883c-17.05,0 -28.654,-10.52 -28.654,-25.937c0,-14.138 8.7,-22.842 26.479,-26.471l19.396,-3.808c10.513,-1.992 12.688,-3.629 12.688,-9.063c-0,-8.529 -7.421,-13.775 -19.213,-13.775c-8.516,0 -15.229,2.713 -17.596,7.438c-1.262,2.346 -1.633,4.35 -1.987,10.692l-15.6,-0Z" style="fill:#08a79d;fill-rule:nonzero;"/><path d="M1700.71,1452.4l0,13.779c3.442,-5.079 4.892,-7.066 7.255,-9.262c3.983,-4.167 10.325,-6.883 15.587,-6.883c3.271,-0 6.342,0.729 9.242,2.179l-0,15.045c-3.442,-0.724 -5.242,-0.895 -7.608,-0.895c-13.426,-0 -23.75,11.958 -23.75,27.562l-0,46.05l-16.68,0l0,-87.575l15.954,0Z" style="fill:#08a79d;fill-rule:nonzero;"/><path d="M1801.35,1495.01c-3.075,1.267 -5.975,2.179 -10.325,3.271l-17.054,3.983c-10.154,2.363 -14.692,6.53 -14.692,13.43c0,7.958 6.525,13.408 16.329,13.408c14.134,0 25.742,-10.342 25.742,-22.858l0,-11.234Zm-54.754,-13.595c0.725,-10.338 2.712,-16.496 7.066,-21.405c5.617,-6.341 16.142,-9.97 28.471,-9.97c21.763,-0 34.092,10.345 34.092,28.475l0,41.158c0,6.879 0.913,8.333 4.708,8.333c1.446,0 2.359,-0.171 4.35,-0.896l0,12.871c-3.979,0.913 -7.425,1.267 -10.879,1.267c-7.979,-0 -11.608,-3.442 -13.054,-11.792c-8.875,8.892 -18.488,12.883 -30.279,12.883c-17.038,0 -28.642,-10.52 -28.642,-25.937c0,-14.138 8.704,-22.842 26.467,-26.471l19.396,-3.808c10.525,-1.992 12.704,-3.629 12.704,-9.063c-0,-8.529 -7.442,-13.775 -19.234,-13.775c-8.516,0 -15.229,2.713 -17.57,7.438c-1.288,2.346 -1.642,4.35 -2.013,10.692l-15.583,-0Z" style="fill:#08a79d;fill-rule:nonzero;"/><path d="M1930.67,1465.62l-15.788,0l0,54.958c0,5.08 2.359,7.979 6.526,7.979c2.362,0 4.725,-0.558 9.262,-2.366l-0,13.596c-7.254,1.641 -9.988,2.012 -13.967,2.012c-12.516,0 -18.504,-6.716 -18.504,-21.221l0,-54.958l-11.775,0l0,-13.221l11.775,0l0,-27.75l16.683,0l0,27.75l15.788,0l-0,13.221Z" style="fill:#08a79d;fill-rule:nonzero;"/><path d="M1956.97,1496.09c-0,20.491 9.246,32.283 25.387,32.283c15.771,0 25.2,-11.792 25.2,-31.729c0,-21.033 -9.058,-32.638 -25.387,-32.638c-15.954,0 -25.2,11.771 -25.2,32.084Zm67.454,0.741c-0,26.817 -17.221,45.504 -42.254,45.504c-25.017,0 -42.071,-18.687 -42.071,-46.245c-0,-27.38 17.054,-46.054 42.071,-46.054c25.575,-0 42.254,18.491 42.254,46.795Z" style="fill:#08a79d;fill-rule:nonzero;"/><path d="M2056.54,1496.09c-0,20.679 9.054,32.283 24.829,32.283c15.958,0 25.029,-11.604 25.029,-31.729c0,-21.033 -8.883,-32.638 -25.029,-32.638c-15.775,0 -24.829,11.605 -24.829,32.084Zm65.633,43.887l-16.683,0l-0,-9.429c-8.329,8.35 -16.679,11.787 -27.746,11.787c-23.379,0 -38.071,-18.129 -38.071,-46.604c0,-27.912 14.858,-45.695 38.071,-45.695c11.25,-0 19.583,3.629 27.746,11.791l-0,-42.791l16.683,-0l-0,120.941Z" style="fill:#08a79d;fill-rule:nonzero;"/><path d="M2159,1496.09c-0,20.491 9.262,32.283 25.387,32.283c15.788,0 25.217,-11.792 25.217,-31.729c0,-21.033 -9.075,-32.638 -25.388,-32.638c-15.954,0 -25.216,11.771 -25.216,32.084Zm67.454,0.741c0,26.817 -17.221,45.504 -42.238,45.504c-25.033,0 -42.062,-18.687 -42.062,-46.245c0,-27.38 17.029,-46.054 42.062,-46.054c25.559,-0 42.238,18.491 42.238,46.795Z" style="fill:#08a79d;fill-rule:nonzero;"/><path d="M2296.66,1479.24c-2.366,-10.879 -8.35,-15.416 -19.954,-15.416c-9.971,-0 -16.683,4.167 -16.683,10.337c-0,4.355 3.083,7.255 10.15,9.063l20.312,5.262c18.317,4.709 25.925,12.329 25.925,25.754c0,17.225 -14.137,28.1 -36.433,28.1c-23.767,0 -37.904,-11.604 -39.725,-32.449l16.512,-0c0.896,11.608 9.601,18.487 23.567,18.487c11.975,0 19.767,-5.262 19.767,-13.429c-0,-5.8 -3.808,-8.871 -13.967,-11.604l-17.404,-4.35c-9.246,-2.346 -14.862,-4.896 -18.487,-8.15c-4.001,-3.459 -6.53,-9.263 -6.53,-15.063c0,-15.041 13.95,-25.741 33.717,-25.741c12.517,-0 22.858,4.166 29.012,11.608c3.813,4.721 5.451,9.429 6.175,17.591l-15.954,0Z" style="fill:#08a79d;fill-rule:nonzero;"/><path d="M720.104,1686.51c-2.362,-10.875 -8.35,-15.412 -19.958,-15.412c-9.967,-0 -16.679,4.162 -16.679,10.337c-0,4.35 3.083,7.254 10.154,9.059l20.308,5.262c18.317,4.709 25.934,12.329 25.934,25.754c-0,17.225 -14.146,28.109 -36.442,28.109c-23.763,-0 -37.904,-11.609 -39.717,-32.454l16.504,-0c0.904,11.604 9.609,18.483 23.567,18.483c11.975,-0 19.767,-5.263 19.767,-13.429c-0,-5.8 -3.813,-8.871 -13.967,-11.605l-17.408,-4.349c-9.242,-2.342 -14.859,-4.892 -18.488,-8.146c-3.996,-3.459 -6.525,-9.259 -6.525,-15.063c0,-15.046 13.958,-25.742 33.717,-25.742c12.516,0 22.858,4.167 29.012,11.605c3.813,4.721 5.45,9.429 6.175,17.591l-15.954,0Z" style="fill:#08a79d;fill-rule:nonzero;"/><path d="M770.342,1703.36c-0,20.492 9.254,32.284 25.387,32.284c15.779,-0 25.208,-11.792 25.208,-31.725c0,-21.038 -9.074,-32.642 -25.387,-32.642c-15.954,0 -25.208,11.775 -25.208,32.083Zm67.454,0.742c-0,26.817 -17.229,45.513 -42.246,45.513c-25.029,-0 -42.067,-18.696 -42.067,-46.255c0,-27.375 17.038,-46.05 42.067,-46.05c25.567,0 42.246,18.488 42.246,46.792Z" style="fill:#08a79d;fill-rule:nonzero;"/><rect x="857.575" y="1626.31" width="16.683" height="120.942" style="fill:#08a79d;fill-rule:nonzero;"/><path d="M915.246,1747.25l-16.684,0l0,-87.575l16.684,0l-0,87.575Zm-0,-101.542l-16.684,0l0,-19.4l16.684,0l-0,19.4Z" style="fill:#08a79d;fill-rule:nonzero;"/><path d="M951.883,1703.36c0,20.68 9.075,32.284 24.846,32.284c15.954,-0 25.025,-11.604 25.025,-31.725c0,-21.038 -8.883,-32.642 -25.025,-32.642c-15.771,0 -24.846,11.604 -24.846,32.083Zm65.65,43.888l-16.683,0l-0,-9.425c-8.35,8.346 -16.683,11.792 -27.746,11.792c-23.396,-0 -38.079,-18.138 -38.079,-46.609c0,-27.916 14.867,-45.696 38.079,-45.696c11.242,0 19.579,3.625 27.746,11.788l-0,-42.792l16.683,0l0,120.942Z" style="fill:#08a79d;fill-rule:nonzero;"/><path d="M1096.42,1702.28c-3.083,1.267 -5.988,2.179 -10.338,3.275l-17.037,3.979c-10.154,2.363 -14.692,6.529 -14.692,13.429c0,7.959 6.529,13.409 16.321,13.409c14.138,-0 25.746,-10.342 25.746,-22.854l-0,-11.238Zm-54.759,-13.592c0.726,-10.341 2.725,-16.495 7.076,-21.404c5.616,-6.345 16.133,-9.971 28.462,-9.971c21.763,0 34.092,10.342 34.092,28.471l-0,41.159c-0,6.883 0.904,8.333 4.716,8.333c1.45,-0 2.363,-0.171 4.35,-0.896l0,12.871c-3.987,0.913 -7.437,1.267 -10.879,1.267c-7.979,-0 -11.604,-3.442 -13.058,-11.792c-8.888,8.892 -18.496,12.892 -30.275,12.892c-17.054,-0 -28.659,-10.53 -28.659,-25.946c0,-14.138 8.705,-22.838 26.484,-26.467l19.396,-3.812c10.52,-1.988 12.695,-3.625 12.695,-9.055c0,-8.537 -7.433,-13.783 -19.224,-13.783c-8.517,0 -15.23,2.713 -17.592,7.438c-1.267,2.346 -1.629,4.354 -1.988,10.695l-15.596,0Z" style="fill:#08a79d;fill-rule:nonzero;"/><path d="M1152.48,1659.67l-0,13.779c3.442,-5.075 4.892,-7.066 7.254,-9.258c3.979,-4.167 10.329,-6.884 15.588,-6.884c3.27,0 6.345,0.726 9.25,2.176l-0,15.045c-3.45,-0.725 -5.254,-0.895 -7.617,-0.895c-13.417,-0 -23.75,11.962 -23.75,27.562l0,46.05l-16.683,0l-0,-87.575l15.958,0Z" style="fill:#08a79d;fill-rule:nonzero;"/><path d="M1216.3,1747.25l-16.675,0l0,-87.575l16.675,0l-0,87.575Zm-0,-101.542l-16.675,0l0,-19.4l16.675,0l-0,19.4Z" style="fill:#08a79d;fill-rule:nonzero;"/><path d="M1253.12,1703.36c0,20.492 9.246,32.284 25.387,32.284c15.771,-0 25.2,-11.792 25.2,-31.725c0,-21.038 -9.058,-32.642 -25.387,-32.642c-15.954,0 -25.2,11.775 -25.2,32.083Zm67.454,0.742c0,26.817 -17.221,45.513 -42.254,45.513c-25.017,-0 -42.067,-18.696 -42.067,-46.255c0,-27.375 17.05,-46.05 42.067,-46.05c25.575,0 42.254,18.488 42.254,46.792Z" style="fill:#08a79d;fill-rule:nonzero;"/><path d="M1468.56,1659.67l-38.604,98.104c-4.912,12.146 -11.437,17.217 -22.133,17.217c-4.354,-0 -7.979,-0.721 -13.409,-2.713l0,-13.612c5.242,2.008 7.255,2.362 10.509,2.362c5.987,0 9.8,-2.9 12.142,-9.058l2.362,-6.9l-36.267,-85.4l17.95,0l19.413,50.046c2.9,7.608 3.442,8.887 6.533,18.487c1.988,-6.529 4.888,-15.583 5.967,-18.487l18.133,-50.046l17.404,0Z" style="fill:#08a79d;fill-rule:nonzero;"/><path d="M1586.28,1686.51c-2.362,-10.875 -8.35,-15.412 -19.958,-15.412c-9.962,-0 -16.679,4.162 -16.679,10.337c-0,4.35 3.087,7.254 10.154,9.059l20.308,5.262c18.317,4.709 25.93,12.329 25.93,25.754c-0,17.225 -14.138,28.109 -36.438,28.109c-23.767,-0 -37.9,-11.609 -39.725,-32.454l16.517,-0c0.891,11.604 9.596,18.483 23.562,18.483c11.975,-0 19.771,-5.263 19.771,-13.429c-0,-5.8 -3.817,-8.871 -13.967,-11.605l-17.408,-4.349c-9.246,-2.342 -14.858,-4.892 -18.488,-8.146c-3.995,-3.459 -6.529,-9.259 -6.529,-15.063c0,-15.046 13.95,-25.742 33.721,-25.742c12.517,0 22.854,4.167 29.013,11.605c3.812,4.721 5.45,9.429 6.17,17.591l-15.954,0Z" style="fill:#08a79d;fill-rule:nonzero;"/><path d="M1636.52,1703.36c-0,20.492 9.262,32.284 25.387,32.284c15.788,-0 25.217,-11.792 25.217,-31.725c-0,-21.038 -9.075,-32.642 -25.388,-32.642c-15.954,0 -25.216,11.775 -25.216,32.083Zm67.45,0.742c-0,26.817 -17.217,45.513 -42.234,45.513c-25.033,-0 -42.071,-18.696 -42.071,-46.255c0,-27.375 17.038,-46.05 42.071,-46.05c25.555,0 42.234,18.488 42.234,46.792Z" style="fill:#08a79d;fill-rule:nonzero;"/><path d="M1774.17,1686.51c-2.363,-10.875 -8.35,-15.412 -19.954,-15.412c-9.971,-0 -16.683,4.162 -16.683,10.337c-0,4.35 3.083,7.254 10.154,9.059l20.308,5.262c18.317,4.709 25.925,12.329 25.925,25.754c-0,17.225 -14.133,28.109 -36.433,28.109c-23.767,-0 -37.9,-11.609 -39.725,-32.454l16.516,-0c0.892,11.604 9.596,18.483 23.563,18.483c11.975,-0 19.767,-5.263 19.767,-13.429c-0,-5.8 -3.813,-8.871 -13.963,-11.605l-17.408,-4.349c-9.246,-2.342 -14.859,-4.892 -18.492,-8.146c-3.992,-3.459 -6.525,-9.259 -6.525,-15.063c-0,-15.046 13.95,-25.742 33.721,-25.742c12.517,0 22.854,4.167 29.012,11.605c3.813,4.721 5.446,9.429 6.171,17.591l-15.954,0Z" style="fill:#08a79d;fill-rule:nonzero;"/><path d="M1846.72,1672.9l-15.788,-0l0,54.958c0,5.079 2.363,7.979 6.529,7.979c2.363,0 4.721,-0.558 9.259,-2.362l-0,13.596c-7.25,1.637 -9.984,2.008 -13.963,2.008c-12.516,-0 -18.508,-6.717 -18.508,-21.221l0,-54.958l-11.771,-0l0,-13.221l11.771,0l0,-27.75l16.683,-0l0,27.75l15.788,0l-0,13.221Z" style="fill:#08a79d;fill-rule:nonzero;"/><path d="M1919.25,1695.4c-0.725,-15.954 -8.7,-24.846 -21.946,-24.846c-13.595,0 -23.379,10.15 -24.287,24.846l46.233,-0Zm-46.421,12.146c1.267,17.95 10.338,28.1 25.388,28.1c10.337,-0 17.221,-4.892 21.217,-15.229l15.958,-0c-4.167,18.316 -18.133,29.2 -37.529,29.2c-24.659,-0 -41.717,-18.863 -41.717,-46.255c0,-27.375 16.683,-46.05 41.158,-46.05c17.409,0 30.109,9.242 35.913,26.113c2.175,6.525 3.254,13.596 3.442,24.121l-63.83,-0Z" style="fill:#08a79d;fill-rule:nonzero;"/><path d="M1972.4,1659.67l0,9.967c8.704,-9.246 15.771,-12.33 27.733,-12.33c10.338,0 18.859,3.438 23.767,9.617c4.167,5.429 5.8,11.604 5.8,21.758l0,58.563l-16.683,0l-0,-57.3c-0,-11.958 -5.446,-17.758 -16.867,-17.758c-14.321,-0 -23.025,8.333 -23.025,21.925l0,53.133l-16.683,0l-0,-87.575l15.958,0Z" style="fill:#08a79d;fill-rule:nonzero;"/><path d="M2070.88,1747.25l-16.683,0l-0,-87.575l16.683,0l0,87.575Zm0,-101.542l-16.683,0l-0,-19.4l16.683,0l0,19.4Z" style="fill:#08a79d;fill-rule:nonzero;"/><path d="M2111.31,1703.01c0,21.034 8.705,32.638 24.659,32.638c15.787,-0 24.662,-11.604 24.662,-32.284c0,-20.479 -8.875,-32.083 -24.662,-32.083c-15.583,0 -24.659,11.604 -24.659,31.729Zm-16.124,-76.7l16.679,0l-0,43.334c8.333,-8.517 16.854,-12.33 27.912,-12.33c22.679,0 37.717,18.134 37.717,45.696c-0,28.659 -14.854,46.609 -38.254,46.609c-11.25,-0 -19.042,-3.446 -27.375,-12.146l-0,9.779l-16.679,0l-0,-120.942Z" style="fill:#08a79d;fill-rule:nonzero;"/><rect x="2197.47" y="1626.31" width="16.679" height="120.942" style="fill:#08a79d;fill-rule:nonzero;"/><path d="M2297.21,1695.4c-0.725,-15.954 -8.7,-24.846 -21.945,-24.846c-13.596,0 -23.392,10.15 -24.304,24.846l46.249,-0Zm-46.42,12.146c1.266,17.95 10.32,28.1 25.387,28.1c10.321,-0 17.221,-4.892 21.2,-15.229l15.963,-0c-4.167,18.316 -18.138,29.2 -37.534,29.2c-24.662,-0 -41.7,-18.863 -41.7,-46.255c0,-27.375 16.684,-46.05 41.159,-46.05c17.408,0 30.091,9.242 35.896,26.113c2.179,6.525 3.27,13.596 3.458,24.121l-63.829,-0Z" style="fill:#08a79d;fill-rule:nonzero;"/><path d="M569.429,773.042c0,-34.146 26.425,-60.567 60.55,-60.567c34.133,0 60.554,26.421 60.554,60.567l0,459.075c0,34.145 -26.421,61.666 -60.554,61.666c-34.125,0 -60.55,-27.521 -60.55,-61.666l0,-459.075Z" style="fill:#231f20;fill-rule:nonzero;"/><path d="M890.875,1106.61c17.608,-0 33.025,7.699 41.829,22.016c16.513,24.233 39.638,57.263 86.975,57.263c36.338,-0 62.746,-27.525 62.746,-59.454c0,-45.155 -41.825,-62.759 -93.567,-80.371c-69.366,-24.23 -147.533,-53.946 -147.533,-167.346c-0,-93.575 77.071,-167.346 178.354,-167.346c93.584,-0 179.458,57.258 179.458,126.6c0,30.833 -25.325,53.946 -56.15,53.946c-12.112,-0 -27.52,-4.383 -35.229,-19.8c-18.716,-20.921 -45.141,-52.85 -88.079,-52.85c-37.433,-0 -61.646,27.521 -61.646,59.45c0,45.129 46.238,59.454 102.379,78.158c67.163,20.921 143.125,56.158 143.125,166.246c0,92.479 -80.375,171.754 -183.858,171.754c-97.983,0 -183.858,-63.858 -183.858,-132.125c-0,-30.812 24.221,-56.141 55.054,-56.141Z" style="fill:#231f20;fill-rule:nonzero;"/><path d="M1257.31,778.546c0,-31.929 25.33,-56.163 56.154,-56.163l39.634,0l-0,-82.562c-0,-34.121 26.417,-60.55 60.554,-60.55c34.129,-0 60.546,26.429 60.546,60.55l-0,82.562l128.812,0c30.821,0 56.155,24.234 56.155,56.163c-0,30.812 -25.334,56.141 -56.155,56.141l-128.812,0l-0,199.276c-0,96.883 53.946,146.42 128.812,146.42c30.821,0 56.155,25.313 56.155,56.142c-0,31.929 -25.334,57.258 -56.155,57.258c-142.025,0 -249.912,-100.196 -249.912,-259.82l-0,-199.276l-39.634,0c-30.824,0 -56.154,-25.329 -56.154,-56.141Z" style="fill:#231f20;fill-rule:nonzero;"/><path d="M2200.03,1003.12c0,-99.075 -72.662,-179.446 -169.55,-179.446c-96.883,0 -169.537,80.371 -169.537,179.446c-0,97.983 72.654,179.454 169.537,179.454c96.888,0 169.55,-81.471 169.55,-179.454Zm-461.304,0c0,-162.933 124.413,-291.75 291.754,-291.75c168.446,-0 291.75,128.817 291.75,291.75c0,162.942 -123.304,291.754 -291.75,291.754c-167.341,0 -291.754,-128.812 -291.754,-291.754Z" style="fill:#231f20;fill-rule:nonzero;"/><path d="M677.933,209.087c-20.196,28.267 -59.479,34.809 -87.745,14.617c-28.267,-20.192 -34.813,-59.479 -14.617,-87.746c20.192,-28.266 59.479,-34.812 87.746,-14.616c28.266,20.195 34.808,59.479 14.616,87.745Z" style="fill:#f4d00f;fill-rule:nonzero;"/><path d="M320.842,99.929c-19.609,27.45 -57.755,33.804 -85.196,14.192c-27.446,-19.608 -33.804,-57.75 -14.196,-85.196c19.608,-27.446 57.754,-33.8 85.2,-14.192c27.446,19.609 33.8,57.75 14.192,85.196Z" style="fill:#78bee9;fill-rule:nonzero;"/><path d="M110.775,402.138c-19.608,27.441 -57.754,33.795 -85.2,14.191c-27.442,-19.608 -33.796,-57.754 -14.192,-85.2c19.609,-27.446 57.755,-33.8 85.2,-14.191c27.442,19.608 33.796,57.754 14.192,85.2Z" style="fill:#3294c9;fill-rule:nonzero;"/><path d="M677.933,576.138c-20.196,28.27 -59.479,34.812 -87.745,14.62c-28.267,-20.196 -34.813,-59.483 -14.617,-87.746c20.192,-28.27 59.479,-34.812 87.746,-14.62c28.266,20.196 34.808,59.483 14.616,87.746Z" style="fill:#bed730;fill-rule:nonzero;"/><path d="M333.95,699.3c-19.608,27.446 -57.754,33.8 -85.2,14.192c-27.446,-19.609 -33.8,-57.754 -14.192,-85.2c19.609,-27.446 57.754,-33.796 85.2,-14.192c27.446,19.608 33.8,57.754 14.192,85.2Z" style="fill:#08a79d;fill-rule:nonzero;"/><path d="M274.592,288.283c-6.329,-0.037 -12.642,-0.425 -18.942,-1.016c20.046,47.775 20.771,101.487 1.813,149.825c6.304,-0.93 12.637,-1.563 18.999,-1.934c16.542,-47.737 15.863,-99.645 -1.87,-146.875Z" style="fill:#3294c9;fill-rule:nonzero;"/><path d="M178.133,174.725l52.134,68.471c6.271,8.237 11.775,16.854 16.612,25.729c6.742,0.992 13.479,1.517 20.204,1.817c-6.337,-13.213 -13.925,-25.992 -23.079,-38.013l-43.583,-57.241l-32.304,-9.7c3.708,2.395 7.187,5.229 10.016,8.937Z" style="fill:#3294c9;fill-rule:nonzero;"/><path d="M269.417,452.975c-6.929,0.683 -13.85,1.804 -20.754,3.229c-3.909,7.525 -8.18,14.921 -13.109,22.038l-48.983,70.733c-7.613,10.971 -19.813,16.858 -32.208,16.858c-7.692,0 -15.459,-2.254 -22.263,-6.966c-10.417,-7.217 -16.096,-18.6 -16.658,-30.35c-0.009,4.316 0.537,8.695 2.046,13c5.641,16.121 20.779,26.212 36.937,26.212c4.292,0 8.654,-0.712 12.929,-2.212l37.979,-13.296l44.421,-64.146c7.771,-11.217 14.229,-23 19.663,-35.1Z" style="fill:#3294c9;fill-rule:nonzero;"/><path d="M135.779,475.346l8.663,-3.033l26.766,-38.646c30.134,-43.484 28.834,-100.963 -3.225,-143.05l-24.783,-32.546l-12.396,-3.725c-8.4,-2.521 -15.633,-6.975 -21.7,-12.542l45.133,59.275c27.513,36.117 28.626,85.446 2.775,122.754l-48.999,70.746c-7.171,10.35 -10.367,22.529 -9.73,34.908c-0.35,-23.616 14.017,-45.92 37.496,-54.141Z" style="fill:#3294c9;fill-rule:nonzero;"/><path d="M289.042,434.629c-4.209,0 -8.392,0.288 -12.58,0.529c-2.079,6.013 -4.416,11.955 -7.045,17.817c6.55,-0.65 13.096,-1.075 19.621,-1.075c45.241,-0 89.287,15.492 124.833,44.071c1.083,-6.254 2.429,-12.425 4.042,-18.508c-36.871,-27.467 -81.501,-42.834 -128.871,-42.834Z" style="fill:#08a79d;fill-rule:nonzero;"/><path d="M432.633,489.421c-1.496,6.704 -2.562,13.541 -3.366,20.45c6.579,6.521 12.891,13.392 18.633,20.929l52.15,68.467c5.758,7.566 8.163,16.546 7.779,25.358c0.038,-0.854 0.221,-1.667 0.2,-2.533l-0.95,-42.1l-45.437,-59.659c-8.713,-11.437 -18.554,-21.596 -29.009,-30.912Z" style="fill:#08a79d;fill-rule:nonzero;"/><path d="M141.488,491.646l81.225,-28.434c8.57,-2.995 17.245,-5.212 25.95,-7.008c3.254,-6.267 6.258,-12.621 8.8,-19.112c-13.701,2.016 -27.238,5.191 -40.455,9.816l-72.566,25.405l-22.234,32.099c-5.087,7.35 -7.162,15.813 -6.766,24.105c0.037,-16.138 9.958,-31.234 26.046,-36.871Z" style="fill:#08a79d;fill-rule:nonzero;"/><path d="M412.267,613.212l-26.65,-34.991c-23.538,-30.896 -59.484,-48.029 -96.684,-48.029c-13.462,-0 -27.091,2.246 -40.354,6.891l-43.246,15.138l-4.571,6.608c-10.554,15.2 -27.9,24.275 -46.399,24.275c-11.509,0 -22.609,-3.466 -32.096,-10.037c-12.388,-8.58 -20.688,-21.467 -23.384,-36.292c-0.441,-2.433 -0.475,-4.858 -0.6,-7.288c0.088,5.905 0.846,11.867 2.9,17.734c7.909,22.6 29.304,37.783 53.242,37.783c6.346,0 12.621,-1.075 18.646,-3.187l81.216,-28.434c11.213,-3.925 22.867,-5.921 34.646,-5.921c32.755,0 62.988,15.03 82.946,41.23l52.146,68.462c0.992,1.3 2.25,2.275 3.333,3.471c-8.841,-9.733 -14.533,-22.383 -14.841,-36.379l-0.25,-11.034Z" style="fill:#08a79d;fill-rule:nonzero;"/><path d="M257.463,437.092c-2.542,6.491 -5.546,12.845 -8.8,19.112c6.904,-1.425 13.825,-2.546 20.754,-3.229c2.629,-5.862 4.966,-11.804 7.045,-17.817c-6.362,0.371 -12.695,1.004 -18.999,1.934Z" style="fill:#007e85;fill-rule:nonzero;"/><path d="M122.267,573.067c9.487,6.571 20.587,10.037 32.096,10.037c18.499,0 35.845,-9.075 46.399,-24.275l4.571,-6.608l-37.979,13.296c-4.275,1.5 -8.637,2.212 -12.929,2.212c-16.158,0 -31.296,-10.091 -36.937,-26.212c-1.509,-4.305 -2.055,-8.684 -2.046,-13c-0.396,-8.292 1.679,-16.755 6.766,-24.105l22.234,-32.099l-8.663,3.033c-23.479,8.221 -37.846,30.525 -37.496,54.141c0.125,2.43 0.159,4.855 0.6,7.288c2.696,14.825 10.996,27.712 23.384,36.292Z" style="fill:#007e85;fill-rule:nonzero;"/><path d="M191.875,164.263l8.546,11.225l40.271,12.087c11.633,3.5 23.466,5.188 35.154,5.188c39.158,-0 76.708,-18.963 99.912,-52.463l25.021,-36.142l-0.25,-11.046c-0.304,-13.441 4.342,-25.745 11.996,-35.62c-0.617,0.796 -1.417,1.404 -1.992,2.237l-48.975,70.738c-19.529,28.191 -51.57,45.025 -85.712,45.025c-10.192,-0 -20.346,-1.5 -30.184,-4.459l-70.487,-21.158c6.321,3.675 12.1,8.346 16.7,14.388Z" style="fill:#78bee9;fill-rule:nonzero;"/><path d="M275.958,288.337c50.35,0 98.304,-17.858 136.542,-48.966c-1.854,-5.934 -3.458,-11.963 -4.808,-18.088c-36.488,32.142 -83.346,49.779 -131.734,49.779c-2.95,0 -5.912,-0.187 -8.875,-0.32c2.767,5.766 5.279,11.608 7.509,17.541c0.458,0.004 0.908,0.054 1.366,0.054Z" style="fill:#78bee9;fill-rule:nonzero;"/><path d="M489.104,114.121l-49,70.75c-5.4,7.8 -11.383,14.979 -17.671,21.796c1.105,6.791 2.454,13.508 4.23,20.07c10.062,-9.762 19.495,-20.275 27.641,-32.029l42.692,-61.646l-0.95,-42.112c-0.021,-0.871 -0.238,-1.679 -0.313,-2.538c0.784,8.792 -1.212,17.884 -6.629,25.709Z" style="fill:#78bee9;fill-rule:nonzero;"/><path d="M255.65,287.267c-2.608,-6.221 -5.504,-12.346 -8.771,-18.342c-9.596,-1.412 -19.183,-3.521 -28.691,-6.375l-82.417,-24.746c-5.071,-1.521 -9.584,-4 -13.446,-7.15l20.875,27.417l70.021,21.021c13.891,4.166 28.104,6.825 42.429,8.175Z" style="fill:#78bee9;fill-rule:nonzero;"/><path d="M267.083,270.742c-6.725,-0.3 -13.462,-0.825 -20.204,-1.817c3.267,5.996 6.163,12.121 8.771,18.342c6.3,0.591 12.613,0.979 18.942,1.016c-2.23,-5.933 -4.742,-11.775 -7.509,-17.541Z" style="fill:#0085c1;fill-rule:nonzero;"/><path d="M130.804,254.346l12.396,3.725l-20.875,-27.417c-8.683,-7.075 -13.825,-17.642 -14.246,-28.904c-0.117,-1.417 -0.075,-2.821 -0.037,-4.233c0.02,-0.296 0.004,-0.584 0.033,-0.875c0.521,-11.167 5.617,-22.042 15.204,-29.342c7.088,-5.392 15.421,-7.996 23.688,-7.996c7.466,0 14.762,2.363 21.15,6.484l32.304,9.7l-8.546,-11.225c-4.6,-6.042 -10.379,-10.713 -16.7,-14.388l-11.933,-3.583c-5.275,-1.588 -10.738,-2.396 -16.229,-2.396c-24.713,-0 -46.926,16.537 -54.021,40.212c-1.042,3.471 -1.659,6.967 -2.017,10.446c-0.071,1.029 -0.108,2.054 -0.121,3.088c-0.087,1.825 -0.037,3.637 0.054,5.445c0.842,10.375 4.442,20.642 11.196,29.525l7,9.192c6.067,5.567 13.3,10.021 21.7,12.542Z" style="fill:#0085c1;fill-rule:nonzero;"/><path d="M407.692,221.283c5.158,-4.546 10.02,-9.5 14.741,-14.616c-1.491,-9.138 -2.479,-18.434 -2.691,-27.904l-1.942,-86.038c-0.208,-9.254 2.946,-17.721 8.167,-24.542c-0.38,0.496 -0.867,0.855 -1.225,1.371l-23.963,34.604l1.692,74.996c0.325,14.408 2.208,28.463 5.221,42.129Z" style="fill:#f4d00f;fill-rule:nonzero;"/><path d="M503.3,123.954l-6.304,9.108l0.987,43.925c1.209,52.884 36.034,98.638 86.7,113.842l42.109,12.642l10.437,-3.654c6.021,-2.105 12.288,-3.167 18.625,-3.167c5.775,0 11.383,0.925 16.708,2.579c-0.17,-0.05 -0.312,-0.146 -0.483,-0.2l-82.433,-24.741c-43.458,-13.042 -73.354,-52.3 -74.392,-97.692l-1.942,-86.034c-0.029,-1.325 -0.354,-2.562 -0.479,-3.862c1.229,13.175 -1.908,26.242 -9.533,37.254Z" style="fill:#f4d00f;fill-rule:nonzero;"/><path d="M644.608,390.546l-82.429,-24.746c-9.092,-2.729 -17.816,-6.158 -26.25,-10.038c-6.175,3.188 -12.187,6.596 -17.933,10.355c12.371,6.533 25.417,12.083 39.217,16.229l71.837,21.562l39.746,-13.916c0.379,-0.13 0.696,-0.354 1.066,-0.496c-4.42,1.704 -9.129,2.708 -13.987,2.708c-3.729,0 -7.521,-0.537 -11.267,-1.658Z" style="fill:#f4d00f;fill-rule:nonzero;"/><path d="M501.621,356.538c5.133,-3.651 10.441,-7.088 15.925,-10.309c-44.717,-26.466 -77.325,-69.325 -90.883,-119.492c-4.563,4.426 -9.259,8.646 -14.163,12.634c15.108,48.3 46.612,89.716 89.121,117.167Z" style="fill:#f4d00f;fill-rule:nonzero;"/><path d="M407.692,221.283c1.35,6.125 2.954,12.154 4.808,18.088c4.904,-3.988 9.6,-8.208 14.163,-12.634c-1.776,-6.562 -3.125,-13.279 -4.23,-20.07c-4.721,5.116 -9.583,10.07 -14.741,14.616Z" style="fill:#89a13d;fill-rule:nonzero;"/><path d="M517.546,346.229c5.908,3.496 12.071,6.634 18.383,9.533c8.254,-4.254 16.813,-8.074 25.775,-11.212l81.225,-28.425c4.271,-1.496 8.633,-2.204 12.921,-2.204c3.979,-0 7.887,0.637 11.612,1.796c-0.125,-0.034 -0.225,-0.109 -0.35,-0.142l-40.32,-12.104l-70.792,24.779c-13.604,4.758 -26.387,10.896 -38.454,17.979Z" style="fill:#bed730;fill-rule:nonzero;"/><path d="M639.642,407.087l-10.592,-3.179l-41.479,14.521c-49.929,17.479 -82.675,64.742 -81.484,117.621l0.992,43.942l6.713,8.812c8.425,11.071 11.875,24.271 11.17,37.179c0.08,-1.437 0.367,-2.821 0.338,-4.283l-1.946,-86.038c-1.021,-45.37 27.079,-85.933 69.925,-100.933l81.225,-28.433c0.954,-0.334 1.767,-0.879 2.692,-1.258c-6.671,2.766 -13.846,4.437 -21.321,4.437c-5.487,-0 -10.95,-0.804 -16.233,-2.388Z" style="fill:#bed730;fill-rule:nonzero;"/><path d="M427.842,537.825c-0.213,-9.454 0.354,-18.771 1.425,-27.954c-4.946,-4.9 -10.038,-9.592 -15.396,-13.9c-2.383,13.762 -3.621,27.867 -3.296,42.246l1.692,74.995l25.5,33.475c0.395,0.517 0.908,0.876 1.325,1.371c-5.546,-6.587 -9.1,-14.92 -9.304,-24.204l-1.946,-86.029Z" style="fill:#bed730;fill-rule:nonzero;"/><path d="M417.913,477.463c5.058,3.77 9.975,7.729 14.72,11.958c11.309,-50.658 41.929,-94.875 85.363,-123.304c-5.621,-2.967 -11.079,-6.163 -16.375,-9.579c-41.192,29.312 -70.779,72.049 -83.708,120.925Z" style="fill:#bed730;fill-rule:nonzero;"/><path d="M413.871,495.971c5.358,4.308 10.45,9 15.396,13.9c0.804,-6.909 1.87,-13.746 3.366,-20.45c-4.745,-4.229 -9.662,-8.188 -14.72,-11.958c-1.613,6.083 -2.959,12.254 -4.042,18.508Z" style="fill:#0d9f4a;fill-rule:nonzero;"/><path d="M513.792,588.804l-6.713,-8.812l0.95,42.1c0.021,0.866 -0.162,1.679 -0.2,2.533c-0.062,1.508 -0.112,3.008 -0.35,4.496c-0.187,1.204 -0.525,2.346 -0.821,3.508c-0.329,1.292 -0.633,2.571 -1.091,3.821c-0.425,1.163 -0.975,2.246 -1.509,3.35c-0.558,1.179 -1.104,2.358 -1.787,3.483c-0.65,1.067 -1.417,2.038 -2.163,3.038c-0.766,1.025 -1.496,2.054 -2.37,3.012c-0.971,1.063 -2.063,1.984 -3.146,2.934c-0.684,0.596 -1.238,1.287 -1.971,1.845c-0.2,0.146 -0.417,0.246 -0.613,0.388c-0.695,0.513 -1.45,0.929 -2.179,1.392c-1.296,0.829 -2.604,1.612 -3.958,2.266c-0.792,0.384 -1.604,0.705 -2.425,1.034c-1.446,0.583 -2.908,1.075 -4.396,1.475c-0.812,0.221 -1.617,0.429 -2.45,0.596c-1.804,0.362 -3.621,0.57 -5.446,0.674c-0.462,0.026 -0.892,0.159 -1.362,0.171c-0.288,0.005 -0.575,0.005 -0.85,0.005l-0.05,-0c-2.859,-0 -5.625,-0.355 -8.313,-0.938c-0.725,-0.162 -1.408,-0.454 -2.129,-0.654c-1.954,-0.546 -3.867,-1.167 -5.687,-1.996c-0.901,-0.408 -1.742,-0.913 -2.613,-1.392c-1.579,-0.871 -3.092,-1.808 -4.529,-2.883c-0.846,-0.625 -1.65,-1.275 -2.45,-1.975c-1.475,-1.3 -2.813,-2.713 -4.079,-4.217c-0.417,-0.495 -0.93,-0.854 -1.325,-1.371l-25.5,-33.475l0.25,11.034c0.308,13.996 6,26.646 14.841,36.379c1.138,1.258 2.279,2.517 3.513,3.658c1.692,1.563 3.487,2.996 5.362,4.346c1.305,0.938 2.65,1.792 4.025,2.608c1.896,1.138 3.813,2.226 5.838,3.134c1.867,0.829 3.808,1.45 5.762,2.067c1.696,0.549 3.354,1.195 5.117,1.579c3.888,0.833 7.871,1.371 11.958,1.371l0.013,-0c1.15,-0 2.258,-0.209 3.396,-0.276c2.654,-0.158 5.275,-0.454 7.816,-0.97c1.134,-0.229 2.246,-0.538 3.359,-0.838c2.266,-0.608 4.475,-1.35 6.621,-2.229c1.066,-0.438 2.137,-0.871 3.183,-1.375c2.142,-1.033 4.175,-2.242 6.154,-3.529c0.875,-0.571 1.783,-1.071 2.629,-1.692c1.484,-1.083 2.792,-2.371 4.158,-3.596c1.409,-1.254 2.859,-2.479 4.117,-3.846c1.325,-1.445 2.467,-3.045 3.642,-4.624c1.008,-1.363 2.067,-2.701 2.941,-4.138c0.98,-1.6 1.759,-3.317 2.58,-5.013c0.779,-1.633 1.604,-3.25 2.22,-4.941c0.605,-1.646 1.005,-3.379 1.459,-5.092c0.475,-1.837 1,-3.667 1.296,-5.541c0.291,-1.863 0.341,-3.792 0.445,-5.705c0.705,-12.908 -2.745,-26.108 -11.17,-37.179Z" style="fill:#0d9f4a;fill-rule:nonzero;"/><path d="M517.996,366.117c5.746,-3.759 11.758,-7.167 17.933,-10.355c-6.312,-2.899 -12.475,-6.037 -18.383,-9.533c-5.484,3.221 -10.792,6.658 -15.925,10.309c5.296,3.416 10.754,6.612 16.375,9.579Z" style="fill:#b4b933;fill-rule:nonzero;"/><path d="M712.042,357.275c0.137,-1.825 -0.009,-3.621 -0.055,-5.429c-0.037,-1.85 0.034,-3.692 -0.195,-5.55c-0.209,-1.746 -0.696,-3.421 -1.071,-5.129c-0.413,-1.9 -0.75,-3.8 -1.367,-5.688c-2.092,-6.333 -5.275,-12.25 -9.421,-17.479c-0.575,-0.725 -1.225,-1.379 -1.837,-2.075c-1.558,-1.779 -3.225,-3.463 -5.004,-5.046c-0.896,-0.787 -1.809,-1.55 -2.75,-2.279c-1.83,-1.421 -3.771,-2.704 -5.788,-3.9c-0.9,-0.538 -1.758,-1.133 -2.687,-1.617c-2.938,-1.533 -6.034,-2.837 -9.305,-3.854c-5.325,-1.654 -10.933,-2.579 -16.708,-2.579c-6.337,0 -12.604,1.062 -18.625,3.167l-10.437,3.654l40.32,12.104c0.125,0.033 0.225,0.108 0.35,0.142c0.284,0.087 0.53,0.241 0.809,0.333c3.212,1.079 6.129,2.587 8.85,4.358c0.641,0.421 1.271,0.821 1.891,1.275c2.842,2.1 5.409,4.479 7.555,7.209c0.329,0.421 0.57,0.891 0.883,1.321c1.996,2.766 3.608,5.766 4.825,8.949c0.138,0.351 0.396,0.605 0.521,0.963c0.075,0.212 0.083,0.425 0.154,0.637c0.483,1.451 0.762,2.959 1.075,4.467c0.213,1.029 0.517,2.05 0.642,3.084c0.162,1.312 0.116,2.645 0.141,3.983c0.025,1.241 0.134,2.487 0.038,3.716c-0.084,1.109 -0.354,2.217 -0.538,3.334c-0.237,1.446 -0.437,2.892 -0.833,4.296c-0.062,0.22 -0.062,0.446 -0.129,0.666c-0.508,1.7 -1.196,3.288 -1.908,4.863c-0.142,0.317 -0.225,0.65 -0.376,0.958c-1.05,2.163 -2.287,4.183 -3.674,6.075c-0.313,0.425 -0.692,0.792 -1.017,1.204c-1.125,1.405 -2.304,2.742 -3.6,3.971c-0.592,0.563 -1.229,1.071 -1.863,1.6c-1.2,1.004 -2.446,1.933 -3.75,2.784c-0.704,0.458 -1.404,0.908 -2.141,1.32c-1.659,0.934 -3.375,1.725 -5.155,2.413c-0.37,0.142 -0.687,0.366 -1.066,0.496l-39.746,13.916l10.592,3.179c5.283,1.584 10.746,2.388 16.233,2.388c7.475,-0 14.65,-1.671 21.321,-4.437c2.021,-0.83 4,-1.713 5.871,-2.746c1.495,-0.834 2.92,-1.771 4.333,-2.73c1.333,-0.904 2.617,-1.854 3.854,-2.862c1.338,-1.079 2.646,-2.187 3.879,-3.388c1.33,-1.295 2.538,-2.687 3.717,-4.099c0.887,-1.046 1.829,-2.042 2.642,-3.155c1.945,-2.696 3.704,-5.52 5.15,-8.508c0.05,-0.104 0.075,-0.225 0.125,-0.325c1.379,-2.904 2.462,-5.937 3.333,-9.038c0.521,-1.87 0.762,-3.741 1.083,-5.616c0.309,-1.763 0.721,-3.5 0.859,-5.296Z" style="fill:#b4b932;fill-rule:nonzero;"/><path d="M400.779,104.158l23.963,-34.604c0.358,-0.516 0.845,-0.875 1.225,-1.371c1.295,-1.695 2.691,-3.287 4.245,-4.75c0.78,-0.737 1.571,-1.416 2.401,-2.079c1.508,-1.2 3.104,-2.258 4.783,-3.229c0.833,-0.483 1.625,-1.008 2.487,-1.425c2.184,-1.063 4.48,-1.9 6.871,-2.542c0.392,-0.108 0.758,-0.295 1.154,-0.387c2.621,-0.621 5.33,-1 8.129,-1.063c0.296,-0.008 0.592,-0.008 0.88,-0.008c0.008,0 0.021,-0.004 0.033,-0.004c0.038,-0 0.075,0.017 0.112,0.017c3.513,0.012 6.863,0.633 10.109,1.516c0.779,0.213 1.533,0.438 2.304,0.7c3.371,1.15 6.575,2.638 9.467,4.613c0.083,0.054 0.175,0.066 0.254,0.125c0.666,0.458 1.179,1.046 1.808,1.537c1.279,1.008 2.563,2.004 3.709,3.163c0.837,0.846 1.529,1.775 2.274,2.683c0.851,1.029 1.721,2.033 2.467,3.15c0.684,1.029 1.225,2.117 1.8,3.196c0.613,1.137 1.246,2.25 1.746,3.45c0.483,1.171 0.817,2.379 1.188,3.591c0.362,1.184 0.758,2.342 1.008,3.571c0.3,1.454 0.404,2.925 0.537,4.404c0.075,0.859 0.292,1.667 0.313,2.538l0.95,42.112l6.304,-9.108c7.625,-11.012 10.763,-24.079 9.533,-37.254c-0.191,-2.083 -0.345,-4.183 -0.762,-6.2c-0.317,-1.533 -0.838,-2.983 -1.271,-4.471c-0.642,-2.146 -1.238,-4.317 -2.121,-6.35c-0.362,-0.846 -0.854,-1.621 -1.254,-2.446c-1.254,-2.537 -2.558,-5.041 -4.158,-7.35c-0.163,-0.233 -0.363,-0.433 -0.525,-0.662c-1.946,-2.709 -4.075,-5.283 -6.454,-7.609c-0.046,-0.045 -0.101,-0.079 -0.146,-0.125c-4.892,-4.754 -10.65,-8.587 -16.967,-11.345c-0.583,-0.25 -1.179,-0.475 -1.771,-0.705c-2.533,-1.008 -5.167,-1.8 -7.862,-2.429c-0.788,-0.183 -1.567,-0.4 -2.363,-0.545c-3.333,-0.63 -6.742,-1.034 -10.241,-1.034l-0.013,0c-4.508,0 -8.938,0.575 -13.221,1.613c-0.721,0.17 -1.371,0.5 -2.079,0.7c-3.296,0.933 -6.5,2.12 -9.558,3.625c-1.246,0.616 -2.409,1.362 -3.6,2.066c-2.359,1.388 -4.621,2.925 -6.759,4.642c-1.208,0.979 -2.391,1.975 -3.516,3.046c-2.054,1.95 -3.913,4.104 -5.667,6.371c-7.654,9.875 -12.3,22.179 -11.996,35.62l0.25,11.046Z" style="fill:#89a13d;fill-rule:nonzero;"/></g></svg>