<?xml version="1.0" encoding="UTF-8" standalone="no"?>
<!DOCTYPE svg PUBLIC "-//W3C//DTD SVG 1.1//EN" "http://www.w3.org/Graphics/SVG/1.1/DTD/svg11.dtd">
<svg width="100%" height="100%" viewBox="0 0 1000 348" version="1.1" xmlns="http://www.w3.org/2000/svg" xmlns:xlink="http://www.w3.org/1999/xlink" xml:space="preserve" xmlns:serif="http://www.serif.com/" style="fill-rule:evenodd;clip-rule:evenodd;stroke-linejoin:round;stroke-miterlimit:2;">
    <g id="Mesa-de-trabajo1" serif:id="Mesa de trabajo1" transform="matrix(1,0,0,1,0,-207.843)">
        <rect x="0" y="207.843" width="1000" height="347.403" style="fill:none;"/>
        <clipPath id="_clip1">
            <rect x="0" y="207.843" width="1000" height="347.403"/>
        </clipPath>
        <g clip-path="url(#_clip1)">
            <g transform="matrix(1,0,0,1,0,0.8427)">
                <g transform="matrix(1.37323,0,0,1.37323,292.45,421.886)">
                    <path d="M0,-20.754C0,-33.246 -5.094,-37.881 -12.734,-37.881C-18.219,-37.881 -22.921,-32.844 -22.921,-32.844L-22.921,33.85C-29.19,35.664 -33.5,36.067 -36.635,36.067C-40.749,36.067 -47.605,35.059 -47.605,35.059L-47.605,-32.037C-47.605,-39.896 -53.874,-37.074 -53.874,-37.074C-53.874,-37.074 -58.968,-43.724 -60.536,-51.582C-55.05,-55.209 -47.41,-57.627 -42.512,-57.627C-36.635,-57.627 -31.345,-55.41 -27.427,-48.762C-23.117,-54 -15.673,-57.627 -8.032,-57.627C8.424,-57.627 24.685,-47.553 24.685,-20.553L24.685,9.672C24.685,18.94 30.954,14.709 30.954,14.709C36.831,19.746 38.594,26.799 38.594,26.799C38.594,26.799 32.129,36.873 18.807,36.873C7.053,36.873 0,26.194 0,15.717L0,-20.754Z" style="fill:rgb(0,112,184);fill-rule:nonzero;"/>
                </g>
                <g transform="matrix(1.37323,0,0,1.37323,435.843,406.117)">
                    <path d="M0,2.013C0,-12.091 -3.918,-27.002 -16.456,-27.002C-28.994,-27.002 -33.108,-12.091 -33.108,2.013C-33.108,15.513 -28.015,29.82 -16.456,29.82C-4.897,29.82 0,15.513 0,2.013M-58.576,2.013C-58.576,-28.815 -36.438,-46.143 -16.456,-46.143C4.31,-46.143 25.468,-29.42 25.468,2.013C25.468,33.244 4.506,48.156 -16.456,48.156C-38.006,48.156 -58.576,32.842 -58.576,2.013" style="fill:rgb(0,112,184);fill-rule:nonzero;"/>
                </g>
                <g transform="matrix(1.37323,0,0,1.37323,490.19,435.444)">
                    <path d="M0,-41.91C-2.939,-49.567 -8.032,-46.947 -8.032,-46.947C-8.032,-46.947 -13.126,-53.597 -14.693,-61.454C-9.208,-65.081 -1.372,-67.499 3.526,-67.499C11.362,-67.499 17.044,-63.671 19.787,-55.41L29.582,-25.388C32.912,-15.313 35.263,-4.432 35.263,-4.432C35.263,-4.432 37.81,-15.112 41.336,-25.388L56.029,-68.104C69.155,-67.701 76.012,-62.663 76.012,-62.663L43.295,24.179C35.655,26.194 30.169,26.194 26.251,26.194L0,-41.91Z" style="fill:rgb(0,112,184);fill-rule:nonzero;"/>
                </g>
                <g transform="matrix(1.37323,0,0,1.37323,679.856,406.117)">
                    <path d="M0,2.013C0,-12.091 -3.918,-27.002 -16.456,-27.002C-28.994,-27.002 -33.108,-12.091 -33.108,2.013C-33.108,15.513 -28.015,29.82 -16.456,29.82C-4.897,29.82 0,15.513 0,2.013M-58.576,2.013C-58.576,-28.815 -36.438,-46.143 -16.456,-46.143C4.311,-46.143 25.468,-29.42 25.468,2.013C25.468,33.244 4.506,48.156 -16.456,48.156C-38.006,48.156 -58.576,32.842 -58.576,2.013" style="fill:rgb(0,112,184);fill-rule:nonzero;"/>
                </g>
                <g transform="matrix(1.37323,0,0,1.37323,737.701,522.326)">
                    <path d="M0,-160.589C0,-168.447 5.877,-174.693 13.518,-174.693C21.158,-174.693 27.231,-168.447 27.231,-160.589C27.231,-152.731 21.158,-146.686 13.518,-146.686C5.877,-146.686 0,-152.731 0,-160.589M1.176,-106.992C1.176,-115.254 -0.979,-125.328 -0.979,-125.328C9.6,-130.365 22.529,-130.768 22.529,-130.768C22.529,-130.768 25.859,-121.299 25.859,-111.627L25.859,-37.277C25.859,-11.082 13.518,5.44 -0.588,14.104C-8.229,7.656 -10.775,-3.224 -10.775,-3.224C-5.682,-9.068 1.176,-21.156 1.176,-37.679L1.176,-106.992Z" style="fill:rgb(0,112,184);fill-rule:nonzero;"/>
                </g>
                <g transform="matrix(1.37323,0,0,1.37323,847.192,415.8)">
                    <path d="M0,-12.09C7.641,-12.09 14.889,-12.896 14.889,-14.911C14.889,-22.366 11.559,-35.06 3.526,-35.06C-5.485,-35.06 -10.383,-26.598 -11.362,-12.896C-8.228,-12.493 -4.114,-12.09 0,-12.09M4.897,41.104C-13.518,41.104 -37.026,28.813 -37.026,-5.239C-37.026,-39.493 -13.518,-53.194 3.33,-53.194C22.334,-53.194 39.77,-38.284 39.77,-10.68C39.77,-0.807 19.199,4.836 0.784,4.836C-3.135,4.836 -6.856,4.634 -11.559,3.627C-9.991,20.149 -0.979,22.566 6.27,22.566C14.497,22.566 20.962,14.305 22.334,11.686C33.108,11.888 39.965,18.336 39.965,18.336C36.831,27.604 24.488,41.104 4.897,41.104" style="fill:rgb(0,112,184);fill-rule:nonzero;"/>
                </g>
                <g transform="matrix(1.37323,0,0,1.37323,929.247,403.349)">
                    <path d="M0,-23.173L-12.93,-23.173C-12.93,-23.173 -13.322,-31.837 -9.796,-42.515L0,-42.515L0,-50.575C0,-58.03 -2.155,-67.903 -2.155,-67.903C8.228,-72.941 21.354,-73.344 21.354,-73.344C21.354,-73.344 24.488,-63.874 24.488,-54.202L24.488,-42.515L50.152,-42.515C50.152,-42.515 50.544,-33.651 46.822,-23.173L24.488,-23.173L24.488,19.745C24.488,27.402 28.406,29.417 31.149,29.417C35.067,29.417 44.667,24.178 44.667,24.178C50.348,32.439 51.523,38.887 51.523,38.887C49.956,40.902 39.377,50.171 25.859,50.171C10.971,50.171 0,40.096 0,24.178L0,-23.173Z" style="fill:rgb(0,112,184);fill-rule:nonzero;"/>
                </g>
                <g transform="matrix(1.37323,0,0,1.37323,174.426,532.053)">
                    <path d="M0,-40.31C0.594,-39.377 1.025,-38.475 1.442,-37.574C1.825,-36.677 2.17,-35.787 2.457,-34.909C2.745,-34.003 2.977,-33.129 3.179,-32.261C3.395,-31.378 3.556,-30.492 3.69,-29.627C4.226,-26.163 4.21,-22.775 3.795,-19.413C3.384,-16.048 2.589,-12.728 1.233,-9.474C0.585,-7.859 -0.221,-6.254 -1.195,-4.661C-1.696,-3.876 -2.228,-3.078 -2.817,-2.303C-3.414,-1.509 -4.045,-0.745 -4.846,0.018L-5.028,0.018L-5.028,0.003C-5.633,-0.916 -6.07,-1.853 -6.468,-2.736C-6.849,-3.632 -7.178,-4.523 -7.476,-5.4C-8.049,-7.187 -8.446,-8.938 -8.708,-10.67C-9.245,-14.147 -9.229,-17.559 -8.845,-20.917C-8.446,-24.272 -7.651,-27.606 -6.313,-30.824C-5.983,-31.653 -5.61,-32.447 -5.204,-33.261C-4.803,-34.08 -4.353,-34.873 -3.865,-35.667C-3.379,-36.456 -2.834,-37.224 -2.238,-38.008C-1.629,-38.789 -0.995,-39.566 -0.207,-40.328L-0.018,-40.328L0,-40.31Z" style="fill:rgb(246,183,132);fill-rule:nonzero;"/>
                </g>
                <g transform="matrix(1.37323,0,0,1.37323,162.86,550.892)">
                    <path d="M0,-58.392C0.132,-56.455 0.048,-54.669 -0.104,-52.924C-0.249,-51.189 -0.509,-49.505 -0.813,-47.88C-1.126,-46.251 -1.505,-44.683 -1.929,-43.136C-2.374,-41.59 -2.851,-40.102 -3.398,-38.655C-5.553,-32.799 -8.489,-27.497 -12.001,-22.621C-15.53,-17.753 -19.606,-13.281 -24.482,-9.373C-26.903,-7.418 -29.53,-5.605 -32.41,-3.953C-33.833,-3.142 -35.358,-2.359 -36.955,-1.657C-38.55,-0.958 -40.198,-0.302 -42.09,0.203L-42.367,0.026L-42.367,0.01C-42.498,-1.945 -42.392,-3.714 -42.252,-5.481C-42.09,-7.199 -41.847,-8.877 -41.52,-10.483C-40.893,-13.735 -40.024,-16.796 -38.931,-19.726C-36.789,-25.564 -33.852,-30.864 -30.362,-35.765C-26.867,-40.662 -22.799,-45.107 -17.934,-49.041C-16.711,-50.028 -15.452,-50.985 -14.124,-51.883C-12.807,-52.784 -11.439,-53.651 -9.998,-54.443C-8.558,-55.278 -7.048,-56.036 -5.445,-56.748C-3.833,-57.441 -2.173,-58.095 -0.286,-58.595L-0.007,-58.446L0,-58.392Z" style="fill:rgb(243,169,112);fill-rule:nonzero;"/>
                </g>
                <g transform="matrix(1.37323,0,0,1.37323,154.565,507.091)">
                    <path d="M0,-36.433C-1.182,-34.148 -2.5,-32.246 -3.843,-30.394C-5.187,-28.556 -6.612,-26.855 -8.068,-25.266C-9.508,-23.662 -10.999,-22.15 -12.543,-20.715C-14.071,-19.292 -15.631,-17.959 -17.225,-16.695C-23.613,-11.643 -30.491,-7.713 -37.733,-4.661C-44.973,-1.613 -52.581,0.6 -60.662,1.67C-64.705,2.212 -68.866,2.442 -73.195,2.334C-75.364,2.28 -77.568,2.105 -79.814,1.825C-82.086,1.502 -84.393,1.119 -86.821,0.407L-87.013,0.048L-87.003,-0.024C-85.832,-2.249 -84.498,-4.159 -83.161,-6.012C-81.791,-7.845 -80.387,-9.542 -78.93,-11.135C-76.017,-14.326 -72.964,-17.167 -69.754,-19.674C-63.378,-24.745 -56.509,-28.676 -49.274,-31.777C-42.047,-34.857 -34.449,-37.078 -26.352,-38.155C-24.337,-38.443 -22.294,-38.619 -20.212,-38.739C-18.115,-38.839 -15.997,-38.875 -13.827,-38.823C-11.679,-38.739 -9.456,-38.561 -7.191,-38.29C-4.917,-37.96 -2.642,-37.579 -0.173,-36.831L0.016,-36.49L0,-36.433Z" style="fill:rgb(241,155,91);fill-rule:nonzero;"/>
                </g>
                <g transform="matrix(1.37323,0,0,1.37323,150.349,428.795)">
                    <path d="M0,4.338C-2.342,6.14 -4.688,7.523 -7.006,8.807C-9.334,10.074 -11.657,11.173 -13.987,12.15C-16.297,13.1 -18.606,13.964 -20.91,14.691C-23.227,15.451 -25.537,16.1 -27.844,16.656C-37.034,18.829 -46.197,19.578 -55.33,19.246C-64.446,18.882 -73.534,17.484 -82.574,14.639C-87.084,13.238 -91.576,11.421 -96.066,9.188C-98.305,8.063 -100.552,6.802 -102.781,5.4C-105.003,3.942 -107.238,2.419 -109.451,0.458L-109.486,-0.011L-109.442,-0.039C-107.092,-1.856 -104.761,-3.205 -102.426,-4.493C-100.112,-5.738 -97.782,-6.827 -95.46,-7.802C-90.848,-9.721 -86.214,-11.194 -81.601,-12.282C-72.391,-14.484 -63.229,-15.24 -54.114,-14.948C-45,-14.641 -35.899,-13.251 -26.873,-10.409C-24.617,-9.703 -22.361,-8.906 -20.118,-7.988C-17.853,-7.091 -15.616,-6.087 -13.36,-4.944C-11.137,-3.817 -8.901,-2.553 -6.662,-1.151C-4.427,0.317 -2.188,1.847 0.016,3.823L0.05,4.284L0,4.338Z" style="fill:rgb(95,141,201);fill-rule:nonzero;"/>
                </g>
                <g transform="matrix(1.37323,0,0,1.37323,156.935,308.363)">
                    <path d="M0,77.803C-3.653,78.1 -6.983,77.98 -10.261,77.734C-13.524,77.495 -16.682,77.078 -19.736,76.542C-22.804,76.006 -25.763,75.314 -28.649,74.57C-31.562,73.773 -34.373,72.903 -37.135,71.915C-48.148,68.041 -58.138,62.66 -67.378,56.217C-76.604,49.743 -85.067,42.202 -92.528,33.2C-96.267,28.716 -99.72,23.854 -102.876,18.521C-104.435,15.853 -105.912,13.031 -107.281,10.085C-108.635,7.088 -109.92,4.03 -110.892,0.511L-110.607,0.009L-110.525,-0.005C-106.893,-0.297 -103.554,-0.149 -100.275,0.081C-97.032,0.327 -93.892,0.751 -90.836,1.312C-84.729,2.421 -78.954,3.98 -73.449,5.932C-62.408,9.813 -52.415,15.16 -43.152,21.586C-33.899,28.006 -25.413,35.524 -17.954,44.508C-16.082,46.753 -14.288,49.116 -12.571,51.559C-10.834,53.996 -9.187,56.549 -7.624,59.207C-6.065,61.916 -4.589,64.719 -3.228,67.675C-1.884,70.677 -0.597,73.757 0.371,77.267L0.075,77.787L0,77.803Z" style="fill:rgb(59,126,192);fill-rule:nonzero;"/>
                </g>
                <g transform="matrix(1.37323,0,0,1.37323,177.265,207.895)">
                    <path d="M0,140.837C-3.696,138.954 -6.811,136.818 -9.822,134.646C-12.802,132.441 -15.578,130.18 -18.192,127.821C-20.8,125.469 -23.256,123.039 -25.561,120.58C-27.876,118.101 -30.081,115.574 -32.125,112.975C-40.374,102.66 -46.765,91.532 -51.746,79.805C-56.723,68.08 -60.35,55.772 -62.104,42.669C-62.995,36.135 -63.386,29.366 -63.21,22.371C-63.107,18.877 -62.85,15.282 -62.396,11.631C-61.876,7.962 -61.277,4.239 -60.108,0.298L-59.528,-0.038L-59.446,-0.019C-55.779,1.888 -52.665,4.035 -49.663,6.211C-46.689,8.415 -43.925,10.698 -41.324,13.039C-36.132,17.762 -31.521,22.714 -27.402,27.877C-19.132,38.21 -12.732,49.329 -7.687,61.021C-2.657,72.743 0.969,85.041 2.741,98.125C3.191,101.396 3.5,104.72 3.682,108.115C3.875,111.489 3.936,114.936 3.832,118.43C3.729,121.945 3.452,125.523 2.973,129.192C2.471,132.861 1.856,136.598 0.678,140.566L0.084,140.875L0,140.837Z" style="fill:rgb(0,112,184);fill-rule:nonzero;"/>
                </g>
                <g transform="matrix(1.37323,0,0,1.37323,256.46,489.234)">
                    <path d="M0,46.937C-11.055,46.937 -21.758,39.114 -21.758,23.197C-21.758,6.6 -10.069,0 -0.494,0C9.789,0 15.139,5.307 15.491,5.647C15.491,8.366 15.421,10.885 14.788,13.878C13.73,14.013 12.676,14.081 11.619,14.081C9.577,14.081 7.886,13.878 7.886,13.878C7.886,8.437 3.803,6.734 -0.563,6.734C-7.956,6.734 -12.463,13.605 -12.463,23.061C-12.463,32.583 -8.027,39.863 0.141,39.863C7.112,39.863 9.436,33.673 9.436,33.673C13.309,33.673 17.181,35.782 17.181,35.782C15.984,40.135 10.633,46.937 0,46.937" style="fill:rgb(91,96,100);fill-rule:nonzero;"/>
                </g>
                <g transform="matrix(1.37323,0,0,1.37323,326.957,518.565)">
                    <path d="M0,4.762L-17.745,4.762L-17.745,24.625C-20.068,25.238 -21.759,25.375 -22.956,25.375C-24.082,25.375 -26.688,25.169 -26.688,25.169L-26.688,-12.857C-26.688,-13.944 -28.024,-14.693 -29.363,-14.693C-29.363,-14.693 -29.502,-15.713 -29.502,-16.869C-29.502,-17.89 -29.433,-19.046 -28.94,-19.795C-26.194,-20.747 -23.307,-20.951 -21.195,-20.951C-19.154,-20.951 -17.745,-20.747 -17.745,-20.747L-17.745,-2.041L0,-2.041L0,-20.066C2.324,-20.679 4.014,-20.815 5.211,-20.815C6.338,-20.815 8.943,-20.61 8.943,-20.61L8.943,17.687C8.943,18.911 10.281,19.524 11.688,19.524C11.688,19.524 11.83,20.475 11.83,21.632C11.83,22.72 11.688,23.944 11.126,24.692C8.731,25.577 6.55,25.713 5.141,25.713C2.818,25.713 0,24.898 0,24.898L0,4.762Z" style="fill:rgb(91,96,100);fill-rule:nonzero;"/>
                </g>
                <g transform="matrix(1.37323,0,0,1.37323,355.489,542.76)">
                    <path d="M0,-30.476C0,-31.563 -1.336,-32.312 -2.676,-32.312C-2.676,-32.312 -2.815,-33.331 -2.815,-34.488C-2.815,-35.509 -2.745,-36.664 -2.253,-37.413C0.494,-38.366 3.38,-38.57 5.492,-38.57C7.534,-38.57 8.943,-38.366 8.943,-38.366L8.943,0.068C8.943,1.293 10.282,1.905 11.689,1.905C11.689,1.905 11.83,2.856 11.83,4.013C11.83,5.101 11.689,6.325 11.126,7.073C8.73,7.959 6.55,8.094 5.141,8.094C2.817,8.094 0,7.279 0,7.279L0,-30.476Z" style="fill:rgb(91,96,100);fill-rule:nonzero;"/>
                </g>
                <g transform="matrix(1.37323,0,0,1.37323,384.017,489.796)">
                    <path d="M0,45.983L0,8.093C0,7.006 -1.337,6.257 -2.675,6.257C-2.675,6.257 -2.816,5.238 -2.816,4.082C-2.816,3.06 -2.746,1.905 -2.253,1.156C0.492,0.204 3.38,0 5.564,0C7.606,0 9.014,0.204 9.014,0.204L9.014,38.977L28.729,38.977C28.729,38.977 28.871,43.604 27.813,45.983L0,45.983Z" style="fill:rgb(91,96,100);fill-rule:nonzero;"/>
                </g>
                <g transform="matrix(1.37323,0,0,1.37323,429.951,490.263)">
                    <path d="M0,45.643L0,7.753C0,6.666 -1.337,5.917 -2.675,5.917C-2.675,5.917 -2.816,4.898 -2.816,3.742C-2.816,2.72 -2.746,1.565 -2.252,0.816C-0.21,0.135 2.114,0 3.874,0L29.716,0C29.716,0 29.855,4.354 28.801,6.732L8.942,6.732L8.942,18.57L26.053,18.57C26.053,18.57 26.196,22.924 25.138,25.305L8.942,25.305L8.942,38.91L30.491,38.91C30.491,38.91 30.631,43.264 29.574,45.643L0,45.643Z" style="fill:rgb(91,96,100);fill-rule:nonzero;"/>
                </g>
                <g transform="matrix(1.37323,0,0,1.37323,-10.0895,488.813)">
                    <rect x="364.836" y="0" width="82.931" height="48.377" style="fill:white;"/>
                </g>
                <g transform="matrix(1.37323,0,0,1.37323,-10.0895,488.813)">
                    <rect x="364.836" y="0" width="24.187" height="48.377" style="fill:rgb(37,48,169);"/>
                </g>
                <g transform="matrix(1.37323,0,0,1.37323,-10.0895,522.029)">
                    <rect x="364.836" y="0" width="82.931" height="24.189" style="fill:rgb(194,38,35);"/>
                </g>
                <g transform="matrix(1.37323,0,0,1.37323,507.52,506.298)">
                    <path d="M0,-6.687L-1.869,-0.935L1.007,0L0,-6.687Z" style="fill:white;fill-rule:nonzero;"/>
                </g>
                <g transform="matrix(1.37323,0,0,1.37323,507.52,506.298)">
                    <path d="M0,-6.687L1.869,-0.935L-1.007,0L0,-6.687Z" style="fill:white;fill-rule:nonzero;"/>
                </g>
                <g transform="matrix(1.37323,0,0,1.37323,515.419,507.006)">
                    <path d="M0,-3.023L-6.048,-3.023L-6.048,0L0,-3.023Z" style="fill:white;fill-rule:nonzero;"/>
                </g>
                <g transform="matrix(1.37323,0,0,1.37323,515.419,507.738)">
                    <path d="M0,-3.556L-4.894,0L-6.672,-2.449L0,-3.556Z" style="fill:white;fill-rule:nonzero;"/>
                </g>
                <g transform="matrix(1.37323,0,0,1.37323,499.621,507.738)">
                    <path d="M0,-3.556L4.893,0L6.671,-2.449L0,-3.556Z" style="fill:white;fill-rule:nonzero;"/>
                </g>
                <g transform="matrix(1.37323,0,0,1.37323,499.621,507.006)">
                    <path d="M0,-3.023L6.047,-3.023L6.047,0L0,-3.023Z" style="fill:white;fill-rule:nonzero;"/>
                </g>
                <g transform="matrix(1.37323,0,0,1.37323,512.4,504.241)">
                    <path d="M0,5.751L-1.868,0L-4.744,0.935L0,5.751Z" style="fill:white;fill-rule:nonzero;"/>
                </g>
                <g transform="matrix(1.37323,0,0,1.37323,512.4,503.899)">
                    <path d="M0,6L-4.892,2.445L-3.114,0L0,6Z" style="fill:white;fill-rule:nonzero;"/>
                </g>
                <g transform="matrix(1.37323,0,0,1.37323,502.64,503.899)">
                    <path d="M0,6L4.891,2.445L3.113,0L0,6Z" style="fill:white;fill-rule:nonzero;"/>
                </g>
                <g transform="matrix(1.37323,0,0,1.37323,502.64,504.241)">
                    <path d="M0,5.751L1.867,0L4.743,0.935L0,5.751Z" style="fill:white;fill-rule:nonzero;"/>
                </g>
            </g>
        </g>
    </g>
</svg>
