<?xml version="1.0" encoding="UTF-8" standalone="no"?><!DOCTYPE svg PUBLIC "-//W3C//DTD SVG 1.1//EN" "http://www.w3.org/Graphics/SVG/1.1/DTD/svg11.dtd"><svg width="100%" height="100%" viewBox="0 0 902 437" version="1.1" xmlns="http://www.w3.org/2000/svg" xmlns:xlink="http://www.w3.org/1999/xlink" xml:space="preserve" xmlns:serif="http://www.serif.com/" style="fill-rule:evenodd;clip-rule:evenodd;stroke-linejoin:round;stroke-miterlimit:2;"><rect id="Mesa-de-trabajo2" serif:id="Mesa de trabajo2" x="0" y="0" width="901.589" height="436.362" style="fill:none;"/><g id="s"><path d="M292.045,4.555l-277.098,0c-4.287,0 -7.795,3.507 -7.795,7.795l0,296.206c0,4.29 2.752,9.972 6.097,12.639l134.145,106.574c3.348,2.667 8.841,2.667 12.198,0l134.136,-106.574c3.348,-2.667 6.106,-8.349 6.106,-12.639l-0,-296.206c-0,-4.288 -3.502,-7.795 -7.789,-7.795" style="fill:#4c8b2b;fill-rule:nonzero;"/><path d="M185.989,204.911c-0,-46.649 -67.092,-45.35 -67.092,-73.503c-0,-20.92 25.228,-24.395 34.729,-24.395c42.338,0 61.917,28.556 61.917,28.556l-0,-30.032c-0,0 -19.216,-25.75 -61.917,-25.75c-29.926,0 -69.969,18.148 -69.969,52.833c0,55.346 90.844,50.138 102.332,72.291" style="fill:#fff;fill-rule:nonzero;"/><path d="M175.04,166.334c-0,-0 20.809,10.824 20.809,43.067c-0,20.701 -14.941,37.982 -41.456,37.982c-42.431,-0 -67.536,-38.198 -67.536,-38.198l-0,36.587c-0,-0 18.151,29.209 67.536,29.209c22.594,-0 71.862,-15.265 71.862,-57.381c0,-38.705 -51.215,-51.266 -51.215,-51.266" style="fill:#fff;fill-rule:nonzero;"/><path d="M379.711,107.184l-25.162,-0l0,-4.578l55.815,-0l-0,4.578l-25.16,-0l0,72.519l-5.493,0l0,-72.519Z" style="fill:#231f20;fill-rule:nonzero;"/><path d="M455.995,166.317c0,4.806 0.117,9.153 0.456,13.386l-5.148,0l-0.336,-9.837l-0.228,-0c-2.751,5.145 -9.04,11.094 -18.766,11.094c-6.978,0 -18.754,-3.543 -18.754,-24.247l0,-31.912l5.484,-0l0,30.88c0,11.899 3.667,20.479 14.527,20.479c8.007,-0 13.84,-5.607 16.243,-11.101c0.576,-1.71 1.035,-3.885 1.035,-6.057l-0,-34.201l5.487,-0l0,41.516Z" style="fill:#231f20;fill-rule:nonzero;"/><path d="M474.289,141.267c-0,-5.488 -0.114,-11.092 -0.459,-16.465l5.034,-0l0.225,11.094l0.345,0c2.403,-6.978 8.118,-12.351 15.559,-12.351c0.804,-0 1.602,0.108 2.286,0.225l-0,5.148c-0.798,-0.117 -1.602,-0.117 -2.631,-0.117c-7.546,0 -12.925,6.519 -14.41,15.325c-0.345,1.608 -0.456,3.435 -0.456,5.265l-0,30.313l-5.493,0l-0,-38.437Z" style="fill:#231f20;fill-rule:nonzero;"/><path d="M508.939,124.801l5.49,-0l-0,54.902l-5.49,0l-0,-54.902Zm2.517,-10.987c-2.517,0 -4.236,-2.172 -4.236,-4.689c-0,-2.517 1.947,-4.803 4.461,-4.803c2.517,0 4.35,2.166 4.35,4.803c0,2.517 -1.719,4.689 -4.461,4.689l-0.114,0Z" style="fill:#231f20;fill-rule:nonzero;"/><path d="M530.55,172.493c2.976,1.836 7.441,3.777 12.355,3.777c8.697,-0 12.816,-4.689 12.816,-10.408c0,-6.06 -3.663,-9.264 -11.553,-12.465c-9.043,-3.432 -13.954,-8.353 -13.954,-14.986c0,-8.007 6.282,-14.866 16.924,-14.866c5.037,0 9.378,1.485 12.123,3.424l-2.058,4.461c-1.941,-1.371 -5.49,-3.312 -10.98,-3.312c-6.975,-0 -10.636,4.458 -10.636,9.489c0,5.721 3.892,8.127 11.323,11.209c8.922,3.549 14.185,8.007 14.185,16.359c-0,9.382 -7.318,15.67 -18.529,15.67c-5.256,-0 -10.297,-1.482 -13.957,-3.771l1.941,-4.581Z" style="fill:#231f20;fill-rule:nonzero;"/><path d="M575.502,137.956c0,-5.041 -0.114,-8.812 -0.459,-13.156l5.143,0l0.345,9.6l0.228,0c3.546,-6.282 8.811,-10.857 17.847,-10.857c7.549,0 13.384,5.028 15.787,11.887l0.225,-0c1.488,-3.196 3.549,-5.71 5.604,-7.432c3.547,-2.856 7.21,-4.455 13.048,-4.455c5.373,0 17.95,2.97 17.95,23.785l-0,32.375l-5.49,-0l-0,-31.916c-0,-12.357 -4.798,-19.669 -14.293,-19.669c-6.873,0 -12.244,5.145 -14.419,10.861c-0.456,1.605 -0.912,3.438 -0.912,5.493l0,35.231l-5.493,-0l0,-34.433c0,-9.84 -4.689,-17.152 -13.609,-17.152c-7.323,0 -13.155,5.94 -15.21,12.346c-0.468,1.602 -0.804,3.432 -0.804,5.379l-0,33.86l-5.488,-0l0,-41.747Z" style="fill:#231f20;fill-rule:nonzero;"/><path d="M690.096,176.383c11.44,0 20.467,-10.29 20.467,-24.364c0,-10.062 -5.595,-23.902 -20.128,-23.902c-14.067,0 -20.352,12.466 -20.352,24.247c-0,13.729 8.688,24.019 19.896,24.019l0.117,0Zm-0.345,4.575c-14.184,0 -25.162,-11.094 -25.162,-28.249c0,-18.763 12.352,-29.164 25.96,-29.164c15.217,-0 25.514,11.43 25.514,28.249c-0,20.359 -14.071,29.164 -26.198,29.164l-0.114,0Z" style="fill:#231f20;fill-rule:nonzero;"/><path d="M359.636,292.512c4.347,2.977 10.411,5.035 16.81,5.035c11.559,-0 18.655,-6.517 18.655,-16.009c-0,-8.586 -4.464,-13.735 -15.676,-17.956c-12.355,-4.464 -19.789,-10.881 -19.789,-21.28c0,-11.328 9.268,-19.567 22.42,-19.567c7.2,0 12.7,1.836 15.331,3.546l-2.064,4.693c-2.058,-1.488 -6.979,-3.655 -13.615,-3.655c-12.459,0 -16.696,8.005 -16.696,14.062c0,8.472 4.921,12.817 16.012,17.164c12.697,5.145 19.447,10.98 19.447,22.417c-0,11.211 -8.013,21.16 -24.481,21.16c-6.627,-0 -14.413,-2.172 -18.412,-5.145l2.058,-4.465Z" style="fill:#231f20;fill-rule:nonzero;"/><path d="M457.431,287.596c-0,4.807 0.108,9.148 0.453,13.378l-5.149,-0l-0.345,-9.831l-0.225,-0c-2.745,5.142 -9.036,11.097 -18.759,11.097c-6.976,0 -18.76,-3.546 -18.76,-24.247l-0,-31.918l5.487,-0l-0,30.886c-0,11.895 3.663,20.473 14.53,20.473c8.001,-0 13.839,-5.607 16.245,-11.092c0.573,-1.716 1.029,-3.891 1.029,-6.069l0,-34.198l5.494,-0l-0,41.521Z" style="fill:#231f20;fill-rule:nonzero;"/><path d="M473.545,293.772c2.97,1.828 7.434,3.775 12.351,3.775c8.698,-0 12.817,-4.684 12.817,-10.408c-0,-6.063 -3.663,-9.264 -11.557,-12.468c-9.039,-3.43 -13.956,-8.35 -13.956,-14.989c-0,-8.004 6.294,-14.872 16.932,-14.872c5.032,0 9.376,1.494 12.127,3.432l-2.058,4.462c-1.95,-1.371 -5.493,-3.313 -10.987,-3.313c-6.978,0 -10.638,4.459 -10.638,9.493c-0,5.718 3.888,8.121 11.322,11.208c8.923,3.547 14.188,8.011 14.188,16.363c0,9.376 -7.32,15.667 -18.526,15.667c-5.265,-0 -10.302,-1.482 -13.962,-3.774l1.947,-4.576Z" style="fill:#231f20;fill-rule:nonzero;"/><path d="M526.035,233.951l0,12.124l15.676,-0l0,4.458l-15.676,0l0,35.693c0,6.972 2.178,11.319 8.014,11.319c2.853,0 4.914,-0.339 6.291,-0.801l0.681,4.125c-1.821,0.678 -4.344,1.254 -7.668,1.254c-4.003,0 -7.318,-1.254 -9.373,-3.774c-2.517,-2.859 -3.432,-7.548 -3.432,-13.155l0,-34.661l-9.27,0l-0,-4.458l9.27,-0l0,-10.066l5.487,-2.058Z" style="fill:#231f20;fill-rule:nonzero;"/><path d="M588.939,268.611c0.117,-7.665 -3.088,-19.219 -16.357,-19.219c-12.121,0 -17.272,10.753 -18.298,19.219l34.655,-0Zm-35,4.341c-0,17.503 9.609,24.481 20.932,24.481c8.007,0 12.126,-1.605 15.214,-3.087l1.371,4.23c-2.055,1.149 -7.663,3.546 -17.266,3.546c-15.793,0 -25.627,-11.439 -25.627,-27.565c-0,-18.298 10.524,-29.749 24.706,-29.749c17.965,-0 21.388,16.936 21.388,24.829c-0,1.488 -0,2.289 -0.225,3.315l-40.493,0Z" style="fill:#231f20;fill-rule:nonzero;"/><path d="M608.606,259.23c0,-5.034 -0.12,-8.809 -0.459,-13.156l5.151,0l0.342,9.841l0.222,-0c2.98,-6.178 9.952,-11.107 18.874,-11.107c5.266,0 19.216,2.637 19.216,23.23l0,32.936l-5.487,-0l-0,-32.48c-0,-10.068 -3.882,-19.102 -15.214,-19.102c-7.662,0 -14.298,5.497 -16.468,12.697c-0.348,1.254 -0.69,3.087 -0.69,4.806l0,34.079l-5.487,-0l0,-41.744Z" style="fill:#231f20;fill-rule:nonzero;"/><path d="M677.457,233.951l0,12.124l15.673,-0l-0,4.458l-15.673,0l0,35.693c0,6.972 2.172,11.319 8.008,11.319c2.85,0 4.92,-0.339 6.294,-0.801l0.681,4.125c-1.833,0.678 -4.353,1.254 -7.668,1.254c-4,0 -7.315,-1.254 -9.376,-3.774c-2.517,-2.859 -3.432,-7.548 -3.432,-13.155l-0,-34.661l-9.264,0l-0,-4.458l9.264,-0l-0,-10.066l5.493,-2.058Z" style="fill:#231f20;fill-rule:nonzero;"/><path d="M733.956,271.582c-12.016,-0.339 -27.797,1.488 -27.797,14.644c0,7.893 5.257,11.436 10.984,11.436c9.15,0 14.41,-5.607 16.24,-10.986c0.459,-1.131 0.573,-2.397 0.573,-3.316l-0,-11.778Zm5.49,16.36c-0,4.347 0.114,8.802 0.801,13.032l-5.034,0l-0.804,-7.887l-0.228,-0c-2.742,4.23 -8.803,9.153 -17.611,9.153c-11.101,0 -16.129,-7.776 -16.129,-15.099c0,-12.7 11.095,-20.365 33.515,-20.134l-0,-1.485c-0,-5.38 -1.032,-16.243 -14.068,-16.129c-4.809,-0 -9.837,1.263 -13.846,4.113l-1.716,-3.996c5.044,-3.318 11.212,-4.701 16.129,-4.701c15.904,-0 18.991,11.901 18.991,21.628l-0,21.505Z" style="fill:#231f20;fill-rule:nonzero;"/><path d="M762.542,279.815c-0,1.26 0.114,2.637 0.453,4.008c2.403,8.349 9.492,13.839 18.076,13.839c12.579,0 19.792,-10.293 19.792,-24.592c-0,-12.585 -6.874,-23.68 -19.333,-23.68c-8.014,0 -15.673,5.497 -18.304,14.644c-0.348,1.371 -0.684,2.859 -0.684,4.806l-0,10.975Zm-5.493,-60.165l5.493,-0l-0,36.722l0.222,-0c3.657,-7.093 10.407,-11.563 20.137,-11.563c13.836,0 23.449,11.68 23.449,28.144c-0,19.558 -12.472,29.288 -24.481,29.288c-8.923,-0 -15.328,-3.664 -19.672,-11.101l-0.228,0l-0.459,9.835l-4.917,-0c0.342,-3.886 0.456,-8.686 0.456,-12.805l-0,-68.52Z" style="fill:#231f20;fill-rule:nonzero;"/><rect x="820.299" y="219.65" width="5.484" height="81.322" style="fill:#231f20;"/><path d="M880.338,268.611c0.114,-7.665 -3.084,-19.219 -16.356,-19.219c-12.124,0 -17.275,10.753 -18.298,19.219l34.654,-0Zm-35.002,4.341c-0,17.503 9.612,24.481 20.935,24.481c8.004,0 12.123,-1.605 15.216,-3.087l1.374,4.23c-2.061,1.149 -7.671,3.546 -17.277,3.546c-15.787,0 -25.618,-11.439 -25.618,-27.565c-0,-18.298 10.521,-29.749 24.706,-29.749c17.961,-0 21.385,16.936 21.385,24.829c-0,1.488 -0,2.289 -0.225,3.315l-40.496,0Z" style="fill:#231f20;fill-rule:nonzero;"/><path d="M371.13,55.35c0.522,0.12 1.509,0.12 2.214,0.12c6.801,0.114 11.806,-3.664 11.806,-12.505c-0,-7.62 -4.543,-11.223 -10.819,-11.223c-1.692,-0 -2.679,0.114 -3.201,0.234l-0,23.374Zm-10.522,-30.815c3.37,-0.525 7.849,-0.816 12.505,-0.816c7.494,0 12.208,1.218 16.105,3.894c4.305,2.965 7.095,7.855 7.095,15.064c0,7.965 -3.027,13.138 -6.861,16.108c-4.302,3.369 -10.705,4.884 -18.379,4.884c-5.055,0 -8.43,-0.354 -10.465,-0.705l0,-38.429Z" style="fill:#231f20;fill-rule:nonzero;"/><rect x="405.077" y="24.008" width="10.527" height="39.191" style="fill:#231f20;"/><path d="M426.703,52.736c2.385,1.221 6.282,2.436 10.182,2.436c3.606,0 5.349,-1.215 5.349,-3.192c0,-1.92 -1.743,-3.027 -6.168,-4.536c-6.624,-2.328 -10.986,-5.991 -10.986,-11.803c-0,-6.921 5.814,-12.267 15.696,-12.267c4.713,-0 8.026,0.867 10.645,2.028l-2.211,8.373c-1.686,-0.75 -4.588,-1.86 -8.551,-1.86c-3.198,0 -4.941,1.158 -4.941,2.907c0,1.975 2.094,2.794 7.038,4.648c7.033,2.568 10.237,6.345 10.237,11.811c-0,6.744 -5.298,12.559 -16.75,12.559c-4.713,-0 -9.309,-1.281 -11.517,-2.439l1.977,-8.665Z" style="fill:#231f20;fill-rule:nonzero;"/><path d="M469.431,32.787l-10.002,-0l-0,-8.779l30.703,0l0,8.779l-10.17,-0l-0,30.412l-10.531,0l0,-30.412Z" style="fill:#231f20;fill-rule:nonzero;"/><rect x="498.147" y="24.008" width="10.521" height="39.191" style="fill:#231f20;"/><path d="M519.074,63.199l0,-39.191l12.388,-0l6.225,12.036c2.148,3.901 4.419,9.13 6.165,13.72l0.171,-0c-0.576,-5.172 -0.816,-10.638 -0.816,-16.51l0,-9.246l9.601,-0l-0,39.191l-11.047,-0l-6.633,-13.024c-2.208,-4.185 -4.767,-9.42 -6.627,-14.188l-0.177,0c0.234,5.293 0.345,11.227 0.345,17.557l-0,9.655l-9.595,-0Z" style="fill:#231f20;fill-rule:nonzero;"/><path d="M592.624,62.211c-1.509,0.699 -5.178,1.629 -9.885,1.629c-14.659,0 -21.109,-9.186 -21.109,-19.597c-0,-13.845 10.119,-20.868 21.805,-20.868c4.533,-0 8.199,0.867 9.828,1.737l-2.034,8.259c-1.749,-0.702 -4.131,-1.395 -7.269,-1.395c-6.048,-0 -11.278,3.546 -11.278,11.568c0,7.159 4.245,11.575 11.455,11.575c2.55,-0 5.409,-0.522 7.038,-1.161l1.449,8.253Z" style="fill:#231f20;fill-rule:nonzero;"/><rect x="601.454" y="24.008" width="10.527" height="39.191" style="fill:#231f20;"/><path d="M650.875,14.59l-6.982,7.32l-8.37,0l4.707,-7.32l10.645,-0Zm-19.021,29.074c-0,7.323 3.195,11.86 8.256,11.86c5.065,-0 8.026,-4.942 8.026,-11.98c-0,-6.75 -3.021,-11.862 -8.083,-11.862c-5.004,-0 -8.199,4.767 -8.199,11.982m27.394,-0.468c0,12.619 -7.56,20.644 -19.66,20.644c-12.147,0 -18.841,-9.132 -18.841,-20.008c0,-11.397 7.501,-20.458 19.483,-20.458c12.613,0 19.018,9.355 19.018,19.822" style="fill:#231f20;fill-rule:nonzero;"/><path d="M668.014,63.199l0,-39.191l12.388,-0l6.222,12.036c2.151,3.901 4.413,9.13 6.165,13.72l0.171,-0c-0.579,-5.172 -0.819,-10.638 -0.819,-16.51l0,-9.246l9.598,-0l-0,39.191l-11.047,-0l-6.627,-13.024c-2.214,-4.185 -4.767,-9.42 -6.633,-14.188l-0.174,0c0.231,5.293 0.351,11.227 0.351,17.557l-0,9.655l-9.595,-0Z" style="fill:#231f20;fill-rule:nonzero;"/></g></svg>