<?xml version="1.0" encoding="UTF-8" standalone="no"?><!DOCTYPE svg PUBLIC "-//W3C//DTD SVG 1.1//EN" "http://www.w3.org/Graphics/SVG/1.1/DTD/svg11.dtd"><svg width="100%" height="100%" viewBox="0 0 698 430" version="1.1" xmlns="http://www.w3.org/2000/svg" xmlns:xlink="http://www.w3.org/1999/xlink" xml:space="preserve" xmlns:serif="http://www.serif.com/" style="fill-rule:evenodd;clip-rule:evenodd;stroke-linejoin:round;stroke-miterlimit:2;"><rect id="Mesa-de-trabajo1" serif:id="Mesa de trabajo1" x="0" y="0" width="697.84" height="429.571" style="fill:none;"/><g id="S"><path d="M280.012,13.602l-261.902,-0c-4.051,-0 -7.36,3.314 -7.36,7.366l-0,279.962c-0,4.054 2.595,9.432 5.759,11.95l126.788,100.735c3.165,2.516 8.352,2.516 11.528,0l126.779,-100.735c3.167,-2.518 5.768,-7.896 5.768,-11.95l0,-279.962c0,-4.052 -3.306,-7.366 -7.36,-7.366" style="fill:#db912e;fill-rule:nonzero;"/><path d="M228.654,289.166c-48.487,0 -88.671,-22.619 -120.379,-22.619l0,-26.905c0,-3.349 0.765,-4.4 4.601,-4.38c30.979,1.963 69.617,22.474 115.778,22.474l0,31.43Z" style="fill:#fff;fill-rule:nonzero;"/><path d="M186.784,243.771c-16.319,-3.552 -32.382,-8.867 -43.85,-12.009c-0.25,-0.065 -0.21,-0.303 0.054,-0.36c39.136,-8.808 60.825,-37.269 60.825,-65.724c0,-30.22 -24.523,-54.74 -54.76,-54.74c-30.229,-0 -54.729,24.52 -54.729,54.74c0,30.234 24.5,54.746 54.729,54.746c0.652,-0 1.286,-0.017 1.921,-0.043c0.453,-0.014 0.479,0.253 0.037,0.406c-11.437,3.957 -25.506,6.377 -42.737,6.377c-4.397,-0 -7.955,3.558 -7.955,7.944l-0,2.286c-22.919,-15.602 -37.966,-41.901 -37.966,-71.716c0,-47.882 38.813,-86.706 86.7,-86.706c47.902,0 86.712,38.824 86.712,86.706c-0,34.365 -19.99,64.061 -48.981,78.093" style="fill:#fff;fill-rule:nonzero;"/><path d="M393.312,175.372c-3.666,1.833 -10.675,3.666 -19.633,3.666c-17.573,0 -34.399,-11.216 -34.399,-36.994c0,-21.576 13.908,-37.971 36.886,-37.971c9.273,-0 14.667,2.057 16.829,3.244l-1.626,4.312c-3.666,-1.833 -8.953,-3.134 -15.101,-3.134c-19.63,0 -31.602,12.732 -31.602,33.654c-0,19.744 11.216,32.467 30.736,32.467c6.153,-0 12.193,-1.292 16.397,-3.34l1.513,4.096Z" style="fill:#231f20;fill-rule:nonzero;"/><path d="M432.139,150.24c-11.326,-0.326 -26.208,1.402 -26.208,13.806c-0,7.445 4.961,10.793 10.355,10.793c8.624,0 13.584,-5.295 15.312,-10.354c0.431,-1.085 0.541,-2.272 0.541,-3.134l0,-11.111Zm5.174,15.423c-0,4.105 0.11,8.307 0.759,12.301l-4.751,0l-0.751,-7.445l-0.215,0c-2.59,3.992 -8.312,8.624 -16.61,8.624c-10.469,-0 -15.211,-7.332 -15.211,-14.228c-0,-11.981 10.468,-19.202 31.605,-18.987l0,-1.405c0,-5.068 -0.971,-15.318 -13.27,-15.208c-4.527,0 -9.278,1.181 -13.049,3.881l-1.617,-3.768c4.748,-3.133 10.567,-4.425 15.208,-4.425c14.986,0 17.902,11.216 17.902,20.384l-0,20.276Z" style="fill:#231f20;fill-rule:nonzero;"/><rect x="454.034" y="101.379" width="5.184" height="76.586" style="fill:#231f20;"/><path d="M476.9,126.185l5.179,0l-0,51.78l-5.179,0l-0,-51.78Zm6.677,-14.771c0,2.368 -1.609,4.417 -4.312,4.417c-2.365,-0 -3.994,-2.049 -3.994,-4.417c-0,-2.377 1.844,-4.536 4.218,-4.536c2.369,0 4.088,2.048 4.088,4.536" style="fill:#231f20;fill-rule:nonzero;"/><path d="M535.574,146.685c-0,-1.403 -0.111,-3.34 -0.542,-4.751c-1.722,-6.902 -7.87,-12.619 -16.284,-12.619c-11.329,0 -18.438,9.814 -18.438,23.189c0,11.652 5.817,22.327 18.115,22.327c7.445,0 14.454,-4.958 16.607,-13.479c0.431,-1.403 0.542,-2.695 0.542,-4.312l-0,-10.355Zm5.178,-45.301l0,64.503c0,3.882 0.111,8.409 0.431,12.078l-4.638,-0l-0.43,-9.823l-0.21,0c-2.7,5.723 -8.848,11.007 -18.443,11.007c-12.842,-0 -22.333,-10.681 -22.333,-26.104c-0.105,-17.256 10.567,-28.042 23.296,-28.042c8.953,0 14.67,4.632 16.939,9.168l0.21,0l-0,-32.787l5.178,0Z" style="fill:#231f20;fill-rule:nonzero;"/><path d="M585.191,150.24c-11.327,-0.326 -26.217,1.402 -26.217,13.806c-0,7.445 4.969,10.793 10.355,10.793c8.623,0 13.593,-5.295 15.321,-10.354c0.43,-1.085 0.541,-2.272 0.541,-3.134l-0,-11.111Zm5.173,15.423c0,4.105 0.105,8.307 0.754,12.301l-4.746,0l-0.75,-7.445l-0.221,0c-2.59,3.992 -8.304,8.624 -16.611,8.624c-10.459,-0 -15.202,-7.332 -15.202,-14.228c0,-11.981 10.457,-19.202 31.603,-18.987l-0,-1.405c-0,-5.068 -0.972,-15.318 -13.27,-15.208c-4.527,0 -9.278,1.181 -13.058,3.881l-1.615,-3.768c4.746,-3.133 10.573,-4.425 15.205,-4.425c14.996,0 17.911,11.216 17.911,20.384l0,20.276Z" style="fill:#231f20;fill-rule:nonzero;"/><path d="M643.222,146.685c-0,-1.403 -0.114,-3.34 -0.542,-4.751c-1.731,-6.902 -7.878,-12.619 -16.292,-12.619c-11.321,0 -18.444,9.814 -18.444,23.189c0,11.652 5.825,22.327 18.123,22.327c7.437,0 14.452,-4.958 16.613,-13.479c0.428,-1.403 0.542,-2.695 0.542,-4.312l-0,-10.355Zm5.173,-45.301l-0,64.503c-0,3.882 0.102,8.409 0.425,12.078l-4.632,-0l-0.431,-9.823l-0.218,0c-2.694,5.723 -8.848,11.007 -18.441,11.007c-12.836,-0 -22.327,-10.681 -22.327,-26.104c-0.113,-17.256 10.567,-28.042 23.296,-28.042c8.947,0 14.667,4.632 16.931,9.168l0.224,0l-0,-32.787l5.173,0Z" style="fill:#231f20;fill-rule:nonzero;"/><path d="M357.827,223.426l-23.733,0l0,-4.311l52.633,-0l-0,4.311l-23.721,0l-0,68.385l-5.179,-0l-0,-68.385Z" style="fill:#231f20;fill-rule:nonzero;"/><path d="M429.771,279.191c0,4.536 0.099,8.627 0.431,12.619l-4.859,-0l-0.329,-9.27l-0.206,-0c-2.59,4.847 -8.522,10.457 -17.69,10.457c-6.584,-0 -17.695,-3.34 -17.695,-22.869l-0,-30.09l5.181,0l0,29.119c0,11.224 3.451,19.312 13.695,19.312c7.556,0 13.055,-5.283 15.319,-10.465c0.544,-1.618 0.974,-3.66 0.974,-5.717l0,-32.249l5.179,0l0,39.153Z" style="fill:#231f20;fill-rule:nonzero;"/><path d="M447.024,255.572c0,-5.181 -0.113,-10.465 -0.431,-15.533l4.749,-0l0.209,10.465l0.326,-0c2.264,-6.474 7.658,-11.647 14.675,-11.647c0.748,0 1.505,0.105 2.151,0.207l-0,4.966c-0.757,-0.215 -1.516,-0.215 -2.488,-0.215c-7.108,0 -12.179,6.148 -13.581,14.452c-0.321,1.507 -0.431,3.238 -0.431,4.957l-0,28.586l-5.179,-0l0,-36.238Z" style="fill:#231f20;fill-rule:nonzero;"/><path d="M479.705,240.037l5.173,0l-0,51.772l-5.173,-0l-0,-51.772Zm15.423,-22.429l-13.16,14.879l-3.994,0l9.604,-14.879l7.55,0Z" style="fill:#231f20;fill-rule:nonzero;"/><path d="M500.086,285.018c2.805,1.728 7.014,3.564 11.644,3.564c8.204,-0 12.086,-4.425 12.086,-9.822c-0,-5.717 -3.454,-8.726 -10.891,-11.755c-8.527,-3.238 -13.156,-7.876 -13.156,-14.134c-0,-7.437 5.926,-14.012 15.958,-14.012c4.748,-0 8.845,1.394 11.437,3.227l-1.946,4.21c-1.833,-1.301 -5.182,-3.125 -10.346,-3.125c-6.593,-0 -10.041,4.198 -10.041,8.949c0,5.392 3.675,7.766 10.684,10.675c8.411,3.244 13.377,7.443 13.377,15.319c0,8.842 -6.904,14.777 -17.48,14.777c-4.966,0 -9.708,-1.4 -13.162,-3.561l1.836,-4.312Z" style="fill:#231f20;fill-rule:nonzero;"/><path d="M549.595,228.607l0,11.431l14.777,0l0,4.207l-14.777,0l0,33.654c0,6.576 2.049,10.675 7.547,10.675c2.695,0 4.641,-0.32 5.939,-0.756l0.637,3.89c-1.722,0.756 -4.091,1.289 -7.221,1.289c-3.771,-0 -6.902,-1.187 -8.848,-3.666c-2.366,-2.695 -3.227,-7.12 -3.227,-12.398l0,-32.688l-8.746,0l0,-4.207l8.746,0l0,-9.493l5.173,-1.938Z" style="fill:#231f20;fill-rule:nonzero;"/><path d="M575.802,240.037l5.173,0l0,51.772l-5.173,-0l-0,-51.772Zm6.689,-14.777c-0,2.374 -1.618,4.423 -4.312,4.423c-2.377,-0 -3.995,-2.049 -3.995,-4.423c0,-2.377 1.833,-4.535 4.202,-4.535c2.377,-0 4.105,2.056 4.105,4.535" style="fill:#231f20;fill-rule:nonzero;"/><path d="M634.047,289.544c-2.266,1.085 -7.66,3.349 -15.208,3.349c-14.89,-0 -24.814,-10.896 -24.814,-26.424c-0,-16.398 11.224,-27.611 26.645,-27.611c6.363,-0 11.655,1.824 13.59,3.229l-1.836,4.208c-2.479,-1.403 -6.468,-3.02 -12.182,-3.02c-13.919,-0 -21.036,10.68 -21.036,22.757c0,13.591 8.522,22.438 20.495,22.438c6.15,0 10.139,-1.731 12.935,-3.02l1.411,4.094Z" style="fill:#231f20;fill-rule:nonzero;"/><path d="M673.519,264.094c-11.318,-0.326 -26.208,1.402 -26.208,13.797c-0,7.448 4.966,10.796 10.354,10.796c8.624,0 13.591,-5.289 15.322,-10.357c0.427,-1.074 0.532,-2.264 0.532,-3.122l0,-11.114Zm5.173,15.423c0,4.099 0.111,8.301 0.76,12.292l-4.743,0l-0.759,-7.445l-0.216,0c-2.589,3.995 -8.303,8.632 -16.61,8.632c-10.465,0 -15.21,-7.332 -15.21,-14.236c-0,-11.972 10.468,-19.194 31.605,-18.987l0,-1.402c0,-5.071 -0.963,-15.313 -13.264,-15.202c-4.525,-0 -9.279,1.181 -13.055,3.884l-1.618,-3.78c4.749,-3.124 10.576,-4.416 15.208,-4.416c14.993,-0 17.902,11.216 17.902,20.384l0,20.276Z" style="fill:#231f20;fill-rule:nonzero;"/><path d="M344.658,59.968c2.212,1.136 5.791,2.269 9.465,2.269c3.354,0 4.981,-1.133 4.981,-2.974c-0,-1.788 -1.627,-2.814 -5.737,-4.222c-6.171,-2.164 -10.282,-5.572 -10.282,-10.983c0,-6.437 5.463,-11.418 14.667,-11.418c4.326,0 7.46,0.819 9.842,1.893l-2.057,7.794c-1.566,-0.706 -4.275,-1.729 -7.898,-1.729c-2.975,0 -4.601,1.083 -4.601,2.703c-0,1.842 1.952,2.598 6.55,4.275c6.544,2.434 9.468,5.952 9.468,11.035c0,6.278 -4.87,11.635 -15.528,11.635c-4.377,0 -8.655,-1.133 -10.712,-2.218l1.842,-8.06Z" style="fill:#231f20;fill-rule:nonzero;"/><path d="M398.591,54.991l-13.092,-0l0,6.706l14.664,-0l0,8.009l-24.457,-0l-0,-36.47l23.701,-0l-0,8.009l-13.908,-0l0,5.839l13.092,-0l-0,7.907Z" style="fill:#231f20;fill-rule:nonzero;"/><path d="M406.924,33.235l9.794,0l-0,28.3l14.009,-0l0,8.17l-23.803,0l0,-36.47Z" style="fill:#231f20;fill-rule:nonzero;"/><path d="M436.837,33.235l9.791,0l0,28.3l14.013,-0l-0,8.17l-23.804,0l0,-36.47Z" style="fill:#231f20;fill-rule:nonzero;"/><path d="M473.52,51.473c0,6.87 2.978,11.094 7.684,11.094c4.705,0 7.467,-4.603 7.467,-11.207c0,-6.27 -2.816,-11.038 -7.572,-11.038c-4.601,0 -7.579,4.44 -7.579,11.151m25.484,-0.38c-0,11.741 -7.032,19.209 -18.282,19.209c-11.313,-0 -17.534,-8.494 -17.534,-18.614c0,-10.66 6.927,-19.1 18.126,-19.1c11.743,-0 17.69,8.709 17.69,18.505" style="fill:#231f20;fill-rule:nonzero;"/><path d="M527.348,62.454c0.49,0.113 1.411,0.113 2.057,0.113c6.329,0.051 11.038,-3.416 11.038,-11.635c-0,-7.142 -4.216,-10.496 -10.117,-10.496c-1.513,-0 -2.488,0.104 -2.978,0.215l0,21.803Zm-9.74,-28.676c3.088,-0.541 7.253,-0.81 11.579,-0.81c7.04,-0 11.417,1.136 15.041,3.623c4.006,2.759 6.606,7.304 6.606,14.012c0,7.471 -2.813,12.282 -6.385,15.041c-4.006,3.091 -10.012,4.493 -17.152,4.493c-4.654,0 -7.847,-0.326 -9.689,-0.595l0,-35.764Z" style="fill:#231f20;fill-rule:nonzero;"/><path d="M580.255,54.991l-13.091,-0l-0,6.706l14.666,-0l0,8.009l-24.457,-0l-0,-36.47l23.701,-0l-0,8.009l-13.91,-0l-0,5.839l13.091,-0l0,7.907Z" style="fill:#231f20;fill-rule:nonzero;"/></g></svg>