<?xml version="1.0" encoding="UTF-8" standalone="no"?>
<!DOCTYPE svg PUBLIC "-//W3C//DTD SVG 1.1//EN" "http://www.w3.org/Graphics/SVG/1.1/DTD/svg11.dtd">
<svg width="100%" height="100%" viewBox="0 0 361 127" version="1.1" xmlns="http://www.w3.org/2000/svg" xmlns:xlink="http://www.w3.org/1999/xlink" xml:space="preserve" xmlns:serif="http://www.serif.com/" style="fill-rule:evenodd;clip-rule:evenodd;stroke-linejoin:round;stroke-miterlimit:2;">
    <g id="Mesa-de-trabajo1" serif:id="Mesa de trabajo1" transform="matrix(0.865285,0,0,0.657303,-69.5801,-201.745)">
        <rect x="80.413" y="306.928" width="417.162" height="192.37" style="fill:none;"/>
        <g id="Capa-1" serif:id="Capa 1" transform="matrix(1.15569,0,0,1.52137,-52.0098,-216.157)">
            <g transform="matrix(1,0,0,1,199.642,411.686)">
                <path d="M0,-10.699C0,-17.138 -2.623,-19.528 -6.563,-19.528C-9.389,-19.528 -11.815,-16.932 -11.815,-16.932L-11.815,17.453C-15.046,18.389 -17.268,18.595 -18.887,18.595C-21.01,18.595 -24.539,18.078 -24.539,18.078L-24.539,-16.516C-24.539,-20.565 -27.773,-19.113 -27.773,-19.113C-27.773,-19.113 -30.402,-22.541 -31.206,-26.594C-28.38,-28.463 -24.441,-29.711 -21.916,-29.711C-18.887,-29.711 -16.157,-28.567 -14.138,-25.139C-11.917,-27.839 -8.076,-29.711 -4.139,-29.711C4.344,-29.711 12.73,-24.516 12.73,-10.595L12.73,4.986C12.73,9.765 15.963,7.584 15.963,7.584C18.992,10.181 19.9,13.818 19.9,13.818C19.9,13.818 16.568,19.012 9.698,19.012C3.639,19.012 0,13.509 0,8.103L0,-10.699Z" style="fill:rgb(111,188,49);fill-rule:nonzero;"/>
            </g>
            <g transform="matrix(1,0,0,1,253.481,405.765)">
                <path d="M0,1.038C0,-6.231 -2.022,-13.919 -8.483,-13.919C-14.948,-13.919 -17.071,-6.231 -17.071,1.038C-17.071,7.999 -14.45,15.374 -8.483,15.374C-2.525,15.374 0,7.999 0,1.038M-30.199,1.038C-30.199,-14.856 -18.786,-23.79 -8.483,-23.79C2.219,-23.79 13.129,-15.167 13.129,1.038C13.129,17.142 2.326,24.828 -8.483,24.828C-19.599,24.828 -30.199,16.933 -30.199,1.038" style="fill:rgb(111,188,49);fill-rule:nonzero;"/>
            </g>
            <g transform="matrix(1,0,0,1,273.885,416.776)">
                <path d="M0,-21.606C-1.516,-25.551 -4.139,-24.204 -4.139,-24.204C-4.139,-24.204 -6.768,-27.631 -7.578,-31.685C-4.749,-33.553 -0.708,-34.801 1.816,-34.801C5.86,-34.801 8.784,-32.824 10.199,-28.567L15.249,-13.088C16.967,-7.894 18.176,-2.285 18.176,-2.285C18.176,-2.285 19.489,-7.789 21.311,-13.088L28.887,-35.111C35.652,-34.904 39.187,-32.308 39.187,-32.308L22.321,12.467C18.384,13.505 15.556,13.505 13.536,13.505L0,-21.606Z" style="fill:rgb(111,188,49);fill-rule:nonzero;"/>
            </g>
            <g transform="matrix(1,0,0,1,345.096,405.765)">
                <path d="M0,1.038C0,-6.231 -2.025,-13.919 -8.489,-13.919C-14.951,-13.919 -17.077,-6.231 -17.077,1.038C-17.077,7.999 -14.445,15.374 -8.489,15.374C-2.528,15.374 0,7.999 0,1.038M-30.203,1.038C-30.203,-14.856 -18.789,-23.79 -8.489,-23.79C2.221,-23.79 13.129,-15.167 13.129,1.038C13.129,17.142 2.32,24.828 -8.489,24.828C-19.599,24.828 -30.203,16.933 -30.203,1.038" style="fill:rgb(111,188,49);fill-rule:nonzero;"/>
            </g>
            <g transform="matrix(1,0,0,1,366.806,449.397)">
                <path d="M0,-82.797C0,-86.848 3.031,-90.067 6.968,-90.067C10.91,-90.067 14.043,-86.848 14.043,-82.797C14.043,-78.745 10.91,-75.628 6.968,-75.628C3.031,-75.628 0,-78.745 0,-82.797M0.61,-55.159C0.61,-59.425 -0.506,-64.615 -0.506,-64.615C4.952,-67.214 11.622,-67.422 11.622,-67.422C11.622,-67.422 13.334,-62.537 13.334,-57.551L13.334,-19.22C13.334,-5.716 6.968,2.805 -0.301,7.27C-4.243,3.947 -5.553,-1.665 -5.553,-1.665C-2.927,-4.677 0.61,-10.909 0.61,-19.426L0.61,-55.159Z" style="fill:rgb(111,188,49);fill-rule:nonzero;"/>
            </g>
            <g transform="matrix(1,0,0,1,407.913,409.397)">
                <path d="M0,-6.227C3.942,-6.227 7.676,-6.644 7.676,-7.682C7.676,-11.526 5.961,-18.07 1.822,-18.07C-2.823,-18.07 -5.351,-13.707 -5.854,-6.644C-4.238,-6.435 -2.12,-6.227 0,-6.227M2.528,21.196C-6.971,21.196 -19.087,14.859 -19.087,-2.695C-19.087,-20.358 -6.971,-27.423 1.718,-27.423C11.515,-27.423 20.507,-19.735 20.507,-5.501C20.507,-0.411 9.901,2.499 0.405,2.499C-1.611,2.499 -3.529,2.39 -5.958,1.875C-5.149,10.391 -0.501,11.639 3.236,11.639C7.474,11.639 10.812,7.379 11.515,6.028C17.068,6.134 20.605,9.46 20.605,9.46C18.992,14.235 12.628,21.196 2.528,21.196" style="fill:rgb(111,188,49);fill-rule:nonzero;"/>
            </g>
            <g transform="matrix(1,0,0,1,438.723,404.723)">
                <path d="M0,-11.942L-6.67,-11.942C-6.67,-11.942 -6.869,-16.411 -5.05,-21.918L0,-21.918L0,-26.069C0,-29.914 -1.111,-35.006 -1.111,-35.006C4.24,-37.604 11.009,-37.812 11.009,-37.812C11.009,-37.812 12.625,-32.925 12.625,-27.942L12.625,-21.918L25.855,-21.918C25.855,-21.918 26.055,-17.344 24.14,-11.942L12.625,-11.942L12.625,10.182C12.625,14.134 14.647,15.17 16.059,15.17C18.078,15.17 23.029,12.47 23.029,12.47C25.957,16.727 26.564,20.054 26.564,20.054C25.754,21.089 20.299,25.87 13.328,25.87C5.655,25.87 0,20.677 0,12.47L0,-11.942Z" style="fill:rgb(111,188,49);fill-rule:nonzero;"/>
            </g>
            <g transform="matrix(47.3353,0,0,-47.3353,158.397,402.567)">
                <path d="M-0.443,1.168C-0.422,1.121 -0.41,1.073 -0.407,1.025C-0.402,0.957 -0.411,0.887 -0.433,0.812C-0.462,0.712 -0.507,0.616 -0.551,0.523L-0.561,0.502C-0.611,0.395 -0.667,0.274 -0.702,0.147C-0.738,0.011 -0.744,-0.11 -0.719,-0.222C-0.678,-0.405 -0.592,-0.573 -0.463,-0.72C-0.444,-0.742 -0.424,-0.762 -0.404,-0.781C-0.395,-0.791 -0.386,-0.8 -0.377,-0.809L-0.37,-0.816L-0.353,-0.801C-0.353,-0.801 -0.358,-0.788 -0.359,-0.786C-0.416,-0.655 -0.453,-0.531 -0.473,-0.407C-0.487,-0.318 -0.49,-0.24 -0.484,-0.168C-0.475,-0.071 -0.452,0.027 -0.417,0.126C-0.4,0.174 -0.382,0.221 -0.365,0.269C-0.341,0.334 -0.316,0.401 -0.293,0.467C-0.255,0.576 -0.236,0.678 -0.236,0.777C-0.232,0.755 -0.23,0.731 -0.229,0.707C-0.225,0.614 -0.24,0.516 -0.276,0.397C-0.287,0.358 -0.299,0.32 -0.311,0.281C-0.332,0.215 -0.354,0.146 -0.373,0.077C-0.405,-0.036 -0.416,-0.153 -0.406,-0.268C-0.395,-0.396 -0.366,-0.526 -0.317,-0.665C-0.257,-0.838 -0.166,-0.994 -0.093,-1.111C-0.08,-1.133 -0.066,-1.154 -0.053,-1.175L-0.031,-1.209L0.045,-1.205L0.039,-1.191C0.038,-1.188 0.036,-1.185 0.034,-1.182C0.033,-1.179 0.03,-1.174 0.03,-1.172C0.045,-1.059 0.091,-0.997 0.186,-0.966C0.226,-0.953 0.268,-0.942 0.309,-0.932C0.325,-0.928 0.341,-0.924 0.356,-0.92C0.515,-0.879 0.626,-0.784 0.685,-0.636C0.72,-0.549 0.737,-0.454 0.733,-0.353C0.731,-0.283 0.719,-0.223 0.696,-0.169C0.692,-0.161 0.688,-0.152 0.683,-0.143C0.681,-0.139 0.678,-0.134 0.675,-0.129L0.664,-0.106L0.656,-0.131C0.636,-0.194 0.597,-0.242 0.536,-0.276C0.506,-0.293 0.474,-0.307 0.443,-0.321C0.43,-0.327 0.416,-0.334 0.403,-0.34C0.383,-0.35 0.362,-0.359 0.341,-0.368C0.296,-0.389 0.249,-0.41 0.205,-0.434C0.127,-0.478 0.07,-0.545 0.034,-0.635C0.01,-0.698 -0.004,-0.756 -0.008,-0.812C-0.01,-0.833 -0.01,-0.855 -0.009,-0.876C-0.009,-0.885 -0.009,-0.894 -0.009,-0.904L-0.009,-0.914L0.013,-0.915C0.013,-0.915 0.028,-0.876 0.032,-0.868C0.093,-0.71 0.192,-0.602 0.332,-0.536C0.354,-0.526 0.376,-0.515 0.398,-0.504C0.409,-0.498 0.42,-0.493 0.431,-0.487C0.467,-0.469 0.509,-0.446 0.55,-0.414C0.536,-0.428 0.52,-0.441 0.503,-0.452C0.462,-0.479 0.419,-0.505 0.377,-0.529L0.361,-0.538C0.306,-0.57 0.243,-0.609 0.194,-0.665C0.115,-0.756 0.059,-0.864 0.023,-0.996C0.013,-1.029 0.006,-1.062 -0.002,-1.097C-0.004,-1.106 -0.005,-1.114 -0.007,-1.122C-0.009,-1.12 -0.01,-1.117 -0.012,-1.114C-0.025,-1.093 -0.037,-1.073 -0.047,-1.053C-0.112,-0.929 -0.119,-0.807 -0.066,-0.69C-0.038,-0.63 -0.003,-0.572 0.032,-0.515C0.053,-0.481 0.075,-0.446 0.097,-0.413C0.124,-0.372 0.152,-0.329 0.178,-0.286C0.314,-0.052 0.341,0.195 0.256,0.449C0.183,0.67 0.052,0.865 -0.132,1.028C-0.225,1.11 -0.318,1.165 -0.415,1.197C-0.42,1.198 -0.425,1.2 -0.431,1.201L-0.46,1.209C-0.46,1.209 -0.444,1.171 -0.443,1.168Z" style="fill:url(#_Radial1);fill-rule:nonzero;"/>
            </g>
            <g transform="matrix(1,0,0,1,135.768,460.305)">
                <path d="M0,-115.712L0.791,-113.827L0.979,-113.376C1.069,-113.158 1.142,-112.983 1.218,-112.809C2.158,-110.646 2.713,-108.43 2.866,-106.225C3.086,-103.065 2.693,-99.827 1.666,-96.326C0.287,-91.625 -1.835,-87.102 -3.887,-82.728L-4.361,-81.715C-6.739,-76.635 -9.434,-70.877 -11.061,-64.81C-12.804,-58.308 -13.071,-52.521 -11.877,-47.119C-9.945,-38.376 -5.835,-30.369 0.339,-23.32C1.235,-22.296 2.205,-21.328 3.142,-20.393C3.57,-19.966 3.998,-19.539 4.419,-19.107L5.067,-18.442L5.778,-19.038L5.849,-19.098L5.956,-19.187L6.506,-19.649L6.244,-20.317L6.206,-20.415C6.168,-20.513 6.13,-20.611 6.089,-20.707C3.415,-26.894 1.669,-32.734 0.75,-38.563C0.095,-42.72 -0.072,-46.376 0.238,-49.741C0.656,-54.269 1.704,-58.905 3.354,-63.521C4.162,-65.783 5.01,-68.076 5.831,-70.293C6.967,-73.367 8.143,-76.545 9.235,-79.698C10.083,-82.146 10.733,-84.525 11.186,-86.849C10.917,-83.76 10.232,-80.438 9.097,-76.673C8.548,-74.85 7.982,-73.031 7.417,-71.213C6.434,-68.052 5.417,-64.784 4.504,-61.537C2.974,-56.094 2.44,-50.533 2.919,-45.01C3.448,-38.889 4.825,-32.698 7.129,-26.083C9.986,-17.879 14.333,-10.44 17.801,-4.877C18.447,-3.84 19.101,-2.809 19.725,-1.823L20.566,-0.494L20.878,0L21.461,-0.029L22.555,-0.083L24.058,-0.158L25.475,-0.227L24.934,-1.538C24.87,-1.693 24.785,-1.853 24.698,-2.011C24.653,-2.093 24.59,-2.208 24.56,-2.278C25.245,-7.43 27.284,-10.113 31.581,-11.526C33.477,-12.15 35.471,-12.645 37.399,-13.124C38.141,-13.309 38.884,-13.493 39.623,-13.685C47.31,-15.679 52.661,-20.303 55.528,-27.43C57.215,-31.624 57.996,-36.21 57.848,-41.062C57.746,-44.44 57.153,-47.34 56.037,-49.928C55.85,-50.361 55.629,-50.768 55.395,-51.198C55.283,-51.404 55.165,-51.621 55.043,-51.857L53.919,-54.015L53.2,-51.691C52.31,-48.813 50.524,-46.658 47.74,-45.103C46.349,-44.326 44.852,-43.644 43.404,-42.983C42.767,-42.693 42.129,-42.402 41.497,-42.103C40.523,-41.642 39.54,-41.197 38.557,-40.752C36.412,-39.781 34.194,-38.778 32.089,-37.61C28.295,-35.508 25.503,-32.225 23.791,-27.852C22.608,-24.828 21.935,-22.046 21.735,-19.345C21.659,-18.313 21.678,-17.282 21.697,-16.284C21.705,-15.842 21.714,-15.4 21.714,-14.958L21.714,-14.014L22.657,-13.96L22.759,-13.954L22.867,-13.947L23.596,-13.905L23.858,-14.587L24.108,-15.24C24.267,-15.657 24.426,-16.074 24.589,-16.49C27.081,-22.849 30.86,-27.488 36.096,-30.594C34.456,-29.477 32.832,-28.173 31.434,-26.581C27.63,-22.248 24.941,-17.065 23.213,-10.737C22.786,-9.174 22.438,-7.608 22.07,-5.952C21.629,-6.695 21.211,-7.415 20.827,-8.146C17.824,-13.865 17.538,-19.494 19.976,-24.875C21.256,-27.7 22.928,-30.437 24.545,-33.084C25.544,-34.719 26.604,-36.334 27.63,-37.895C28.922,-39.863 30.259,-41.897 31.474,-43.971C38.013,-55.133 39.28,-66.966 35.238,-79.139C31.736,-89.688 25.497,-98.989 16.696,-106.784C12.261,-110.712 7.819,-113.355 3.116,-114.866C2.883,-114.94 2.648,-115.002 2.368,-115.075L1.974,-115.179L0,-115.712ZM1.713,-114.214C2.168,-114.091 2.493,-114.015 2.81,-113.914C7.822,-112.304 12.133,-109.489 16.033,-106.035C24.477,-98.557 30.728,-89.551 34.289,-78.824C38.261,-66.862 36.981,-55.35 30.611,-44.476C28.446,-40.781 25.939,-37.285 23.705,-33.628C22.047,-30.913 20.374,-28.177 19.065,-25.288C16.364,-19.328 16.935,-13.407 19.942,-7.681C20.7,-6.238 21.574,-4.856 22.492,-3.281C23.089,-5.853 23.553,-8.185 24.177,-10.473C25.738,-16.188 28.248,-21.436 32.186,-25.921C34.374,-28.414 37.135,-30.173 39.974,-31.825C42.253,-33.153 44.546,-34.463 46.738,-35.925C49.077,-37.483 50.903,-39.559 52.225,-42.102C52.153,-42.11 52.101,-42.125 52.073,-42.125C52.064,-42.125 52.057,-42.123 52.054,-42.118C49.573,-38.978 46.308,-36.879 42.785,-35.119C41.237,-34.346 39.709,-33.532 38.141,-32.801C31.079,-29.508 26.461,-24.009 23.658,-16.855C23.41,-16.22 23.169,-15.582 22.924,-14.946C22.854,-14.95 22.784,-14.954 22.714,-14.958C22.714,-16.396 22.626,-17.84 22.732,-19.271C22.943,-22.111 23.687,-24.841 24.723,-27.487C26.279,-31.463 28.847,-34.671 32.574,-36.735C35.59,-38.408 38.802,-39.721 41.925,-41.199C44.033,-42.197 46.196,-43.095 48.227,-44.23C51.023,-45.791 53.117,-48.039 54.156,-51.395C54.532,-50.673 54.865,-50.119 55.119,-49.532C56.288,-46.823 56.76,-43.969 56.849,-41.031C56.987,-36.467 56.305,-32.042 54.6,-27.803C51.789,-20.815 46.615,-16.532 39.372,-14.653C36.664,-13.95 33.92,-13.349 31.268,-12.476C26.356,-10.86 24.239,-7.592 23.557,-2.317C23.51,-1.956 23.85,-1.544 24.01,-1.157C23.197,-1.117 22.376,-1.075 21.411,-1.027C20.551,-2.391 19.593,-3.893 18.65,-5.406C14.486,-12.086 10.674,-18.944 8.074,-26.412C5.961,-32.479 4.469,-38.696 3.915,-45.096C3.441,-50.563 3.982,-55.986 5.467,-61.266C6.892,-66.335 8.535,-71.341 10.054,-76.384C11.511,-81.219 12.507,-86.132 12.286,-91.22C12.167,-93.967 11.731,-96.664 10.808,-99.308C10.784,-99.146 10.726,-98.978 10.744,-98.82C11.472,-92.354 10.397,-86.106 8.29,-80.025C6.414,-74.608 4.342,-69.257 2.412,-63.858C0.789,-59.316 -0.314,-54.639 -0.758,-49.833C-1.111,-46.01 -0.835,-42.197 -0.238,-38.408C0.752,-32.132 2.656,-26.131 5.17,-20.312C5.221,-20.195 5.265,-20.074 5.313,-19.953C5.254,-19.903 5.195,-19.854 5.136,-19.804C3.784,-21.192 2.365,-22.523 1.091,-23.978C-4.849,-30.761 -8.954,-38.527 -10.9,-47.335C-12.176,-53.106 -11.618,-58.869 -10.095,-64.551C-8.53,-70.388 -6.005,-75.844 -3.455,-81.291C-1.199,-86.113 1.12,-90.91 2.626,-96.044C3.608,-99.395 4.106,-102.804 3.864,-106.294C3.697,-108.694 3.095,-111 2.134,-113.21C2.014,-113.483 1.903,-113.762 1.713,-114.214" style="fill:white;fill-rule:nonzero;"/>
            </g>
            <g transform="matrix(1,0,0,1,203.737,444.987)">
                <path d="M0,6.151L2.148,5.963C2.25,6.825 2.487,7.53 2.859,8.082C3.231,8.634 3.808,9.08 4.59,9.421C5.373,9.761 6.253,9.931 7.232,9.931C8.101,9.931 8.867,9.803 9.533,9.544C10.198,9.286 10.692,8.932 11.018,8.482C11.342,8.031 11.505,7.54 11.505,7.009C11.505,6.468 11.348,5.997 11.036,5.594C10.722,5.191 10.206,4.853 9.486,4.578C9.024,4.398 8.003,4.119 6.422,3.739C4.841,3.36 3.733,3.001 3.1,2.665C2.278,2.235 1.665,1.7 1.263,1.062C0.859,0.424 0.658,-0.289 0.658,-1.08C0.658,-1.949 0.904,-2.76 1.397,-3.516C1.89,-4.271 2.61,-4.845 3.557,-5.236C4.504,-5.627 5.557,-5.823 6.715,-5.823C7.991,-5.823 9.116,-5.618 10.09,-5.206C11.065,-4.795 11.814,-4.191 12.338,-3.392C12.863,-2.594 13.144,-1.691 13.183,-0.681L11,-0.517C10.883,-1.605 10.485,-2.426 9.808,-2.982C9.132,-3.538 8.131,-3.816 6.809,-3.816C5.432,-3.816 4.428,-3.563 3.798,-3.058C3.168,-2.553 2.853,-1.945 2.853,-1.233C2.853,-0.614 3.076,-0.106 3.522,0.293C3.96,0.692 5.105,1.102 6.956,1.52C8.807,1.939 10.076,2.305 10.765,2.618C11.767,3.08 12.507,3.664 12.984,4.372C13.461,5.081 13.7,5.897 13.7,6.821C13.7,7.736 13.438,8.599 12.914,9.409C12.389,10.219 11.636,10.849 10.654,11.299C9.671,11.749 8.566,11.974 7.337,11.974C5.78,11.974 4.475,11.747 3.423,11.293C2.37,10.84 1.544,10.157 0.945,9.245C0.347,8.333 0.032,7.302 0,6.151" style="fill:rgb(73,134,46);fill-rule:nonzero;"/>
            </g>
            <g transform="matrix(1,0,0,1,229.939,444.481)">
                <path d="M0,12.186L0,10.355C-0.97,11.763 -2.29,12.467 -3.956,12.467C-4.692,12.467 -5.379,12.327 -6.016,12.045C-6.654,11.763 -7.128,11.409 -7.437,10.983C-7.746,10.556 -7.964,10.034 -8.089,9.415C-8.175,9 -8.217,8.343 -8.217,7.443L-8.217,-0.281L-6.105,-0.281L-6.105,6.633C-6.105,7.737 -6.061,8.48 -5.975,8.863C-5.843,9.42 -5.56,9.855 -5.13,10.173C-4.7,10.49 -4.168,10.648 -3.534,10.648C-2.9,10.648 -2.305,10.486 -1.749,10.161C-1.194,9.836 -0.801,9.394 -0.569,8.834C-0.339,8.275 -0.223,7.463 -0.223,6.398L-0.223,-0.281L1.89,-0.281L1.89,12.186L0,12.186Z" style="fill:rgb(73,134,46);fill-rule:nonzero;"/>
            </g>
            <g transform="matrix(1,0,0,1,235.785,447.921)">
                <path d="M0,5.024L2.089,4.696C2.207,5.533 2.533,6.175 3.07,6.621C3.606,7.067 4.355,7.29 5.317,7.29C6.288,7.29 7.008,7.092 7.478,6.697C7.947,6.302 8.182,5.838 8.182,5.306C8.182,4.829 7.974,4.453 7.56,4.179C7.27,3.991 6.55,3.752 5.4,3.463C3.85,3.072 2.776,2.734 2.178,2.447C1.579,2.162 1.125,1.767 0.816,1.262C0.506,0.757 0.352,0.199 0.352,-0.411C0.352,-0.966 0.479,-1.481 0.733,-1.955C0.988,-2.428 1.334,-2.821 1.773,-3.134C2.101,-3.377 2.549,-3.583 3.116,-3.751C3.684,-3.919 4.292,-4.003 4.942,-4.003C5.92,-4.003 6.78,-3.862 7.518,-3.581C8.258,-3.299 8.804,-2.917 9.157,-2.436C9.508,-1.955 9.751,-1.31 9.884,-0.505L7.818,-0.223C7.724,-0.865 7.453,-1.366 7.002,-1.725C6.552,-2.085 5.916,-2.266 5.094,-2.266C4.124,-2.266 3.431,-2.105 3.017,-1.785C2.602,-1.463 2.395,-1.087 2.395,-0.657C2.395,-0.384 2.481,-0.137 2.653,0.082C2.825,0.309 3.095,0.497 3.463,0.645C3.674,0.724 4.296,0.904 5.329,1.185C6.824,1.585 7.867,1.912 8.458,2.166C9.049,2.42 9.513,2.79 9.849,3.275C10.186,3.761 10.353,4.363 10.353,5.083C10.353,5.787 10.148,6.451 9.737,7.073C9.326,7.695 8.733,8.176 7.959,8.517C7.184,8.858 6.308,9.027 5.329,9.027C3.709,9.027 2.475,8.691 1.626,8.018C0.777,7.345 0.235,6.347 0,5.024" style="fill:rgb(73,134,46);fill-rule:nonzero;"/>
            </g>
            <g transform="matrix(1,0,0,1,254.756,441.898)">
                <path d="M0,12.879L0.306,14.745C-0.29,14.871 -0.822,14.933 -1.291,14.933C-2.058,14.933 -2.653,14.811 -3.075,14.569C-3.498,14.327 -3.796,14.008 -3.968,13.612C-4.14,13.217 -4.226,12.386 -4.226,11.118L-4.226,3.945L-5.776,3.945L-5.776,2.302L-4.226,2.302L-4.226,-0.786L-2.125,-2.054L-2.125,2.302L0,2.302L0,3.945L-2.125,3.945L-2.125,11.235C-2.125,11.838 -2.088,12.225 -2.013,12.397C-1.939,12.569 -1.818,12.706 -1.649,12.808C-1.481,12.91 -1.241,12.961 -0.928,12.961C-0.692,12.961 -0.383,12.933 0,12.879" style="fill:rgb(73,134,46);fill-rule:nonzero;"/>
            </g>
            <g transform="matrix(1,0,0,1,259.909,451.63)">
                <path d="M0,-2.394L6.962,-2.394C6.867,-3.443 6.602,-4.229 6.163,-4.754C5.49,-5.568 4.618,-5.975 3.546,-5.975C2.574,-5.975 1.759,-5.65 1.097,-5C0.436,-4.35 0.07,-3.482 0,-2.394M6.938,1.022L9.122,1.292C8.777,2.568 8.139,3.558 7.208,4.262C6.277,4.967 5.087,5.318 3.639,5.318C1.815,5.318 0.37,4.757 -0.699,3.634C-1.767,2.511 -2.301,0.936 -2.301,-1.091C-2.301,-3.188 -1.761,-4.816 -0.681,-5.975C0.399,-7.133 1.8,-7.712 3.522,-7.712C5.189,-7.712 6.551,-7.144 7.607,-6.01C8.663,-4.875 9.192,-3.278 9.192,-1.22C9.192,-1.095 9.188,-0.907 9.18,-0.656L-0.118,-0.656C-0.039,0.713 0.348,1.762 1.045,2.489C1.741,3.217 2.61,3.581 3.651,3.581C4.426,3.581 5.087,3.378 5.635,2.971C6.182,2.563 6.617,1.914 6.938,1.022" style="fill:rgb(73,134,46);fill-rule:nonzero;"/>
            </g>
            <g transform="matrix(1,0,0,1,273.174,443.918)">
                <path d="M0,12.749L0,0.282L1.901,0.282L1.901,2.054C2.817,0.685 4.14,0 5.869,0C6.621,0 7.311,0.135 7.942,0.405C8.571,0.675 9.043,1.03 9.356,1.468C9.669,1.906 9.888,2.427 10.014,3.029C10.092,3.42 10.131,4.105 10.131,5.084L10.131,12.749L8.018,12.749L8.018,5.165C8.018,4.304 7.936,3.661 7.772,3.234C7.607,2.808 7.316,2.467 6.896,2.213C6.478,1.959 5.987,1.831 5.423,1.831C4.523,1.831 3.747,2.118 3.093,2.689C2.44,3.26 2.113,4.344 2.113,5.94L2.113,12.749L0,12.749Z" style="fill:rgb(73,134,46);fill-rule:nonzero;"/>
            </g>
            <g transform="matrix(1,0,0,1,292.649,441.898)">
                <path d="M0,12.879L0.306,14.745C-0.29,14.871 -0.822,14.933 -1.291,14.933C-2.058,14.933 -2.653,14.811 -3.075,14.569C-3.498,14.327 -3.796,14.008 -3.968,13.612C-4.14,13.217 -4.226,12.386 -4.226,11.118L-4.226,3.945L-5.776,3.945L-5.776,2.302L-4.226,2.302L-4.226,-0.786L-2.125,-2.054L-2.125,2.302L0,2.302L0,3.945L-2.125,3.945L-2.125,11.235C-2.125,11.838 -2.088,12.225 -2.013,12.397C-1.939,12.569 -1.818,12.706 -1.649,12.808C-1.481,12.91 -1.241,12.961 -0.928,12.961C-0.692,12.961 -0.383,12.933 0,12.879" style="fill:rgb(73,134,46);fill-rule:nonzero;"/>
            </g>
            <g transform="matrix(1,0,0,1,304.166,450.456)">
                <path d="M0,-0.046C-0.767,0.267 -1.918,0.533 -3.452,0.752C-4.32,0.878 -4.935,1.018 -5.295,1.175C-5.655,1.331 -5.933,1.561 -6.128,1.861C-6.324,2.163 -6.421,2.497 -6.421,2.865C-6.421,3.428 -6.208,3.898 -5.782,4.274C-5.355,4.649 -4.731,4.837 -3.91,4.837C-3.095,4.837 -2.371,4.659 -1.738,4.303C-1.104,3.947 -0.638,3.46 -0.341,2.841C-0.114,2.365 0,1.66 0,0.729L0,-0.046ZM0.176,4.673C-0.607,5.338 -1.36,5.807 -2.084,6.081C-2.808,6.355 -3.585,6.492 -4.414,6.492C-5.784,6.492 -6.836,6.158 -7.572,5.488C-8.308,4.82 -8.676,3.965 -8.676,2.924C-8.676,2.314 -8.536,1.756 -8.259,1.251C-7.981,0.746 -7.617,0.341 -7.167,0.036C-6.717,-0.269 -6.21,-0.5 -5.647,-0.656C-5.232,-0.766 -4.606,-0.872 -3.768,-0.974C-2.063,-1.177 -0.807,-1.42 0,-1.702C0.008,-1.991 0.012,-2.175 0.012,-2.253C0.012,-3.114 -0.188,-3.721 -0.587,-4.072C-1.127,-4.55 -1.93,-4.789 -2.994,-4.789C-3.988,-4.789 -4.721,-4.614 -5.195,-4.266C-5.668,-3.918 -6.019,-3.302 -6.245,-2.417L-8.312,-2.7C-8.124,-3.584 -7.815,-4.298 -7.384,-4.842C-6.954,-5.386 -6.332,-5.804 -5.518,-6.098C-4.704,-6.391 -3.761,-6.538 -2.689,-6.538C-1.624,-6.538 -0.759,-6.413 -0.094,-6.163C0.571,-5.912 1.06,-5.597 1.374,-5.217C1.686,-4.837 1.906,-4.358 2.031,-3.779C2.101,-3.419 2.136,-2.77 2.136,-1.83L2.136,0.987C2.136,2.952 2.181,4.193 2.271,4.714C2.361,5.235 2.539,5.733 2.806,6.211L0.599,6.211C0.379,5.772 0.239,5.26 0.176,4.673" style="fill:rgb(73,134,46);fill-rule:nonzero;"/>
            </g>
            <g transform="matrix(1,0,0,1,312.993,446.066)">
                <path d="M0,4.273C0,5.769 0.203,6.848 0.61,7.514C1.275,8.601 2.175,9.145 3.31,9.145C4.234,9.145 5.032,8.745 5.705,7.942C6.378,7.14 6.714,5.945 6.714,4.356C6.714,2.727 6.392,1.527 5.746,0.752C5.1,-0.023 4.32,-0.411 3.404,-0.411C2.481,-0.411 1.683,-0.01 1.01,0.793C0.336,1.595 0,2.755 0,4.273M0.023,10.601L-1.937,10.601L-1.937,-6.609L0.175,-6.609L0.175,-0.469C1.068,-1.589 2.207,-2.148 3.592,-2.148C4.359,-2.148 5.084,-1.994 5.769,-1.684C6.454,-1.375 7.017,-0.941 7.46,-0.381C7.902,0.178 8.248,0.854 8.499,1.644C8.749,2.434 8.875,3.279 8.875,4.179C8.875,6.316 8.346,7.967 7.29,9.134C6.233,10.299 4.965,10.882 3.486,10.882C2.015,10.882 0.86,10.268 0.023,9.039L0.023,10.601Z" style="fill:rgb(73,134,46);fill-rule:nonzero;"/>
            </g>
            <g transform="matrix(1,0,0,1,0,54.234)">
                <rect x="325.883" y="385.223" width="2.113" height="17.21" style="fill:rgb(73,134,46);"/>
            </g>
            <g transform="matrix(1,0,0,1,334.358,451.63)">
                <path d="M0,-2.394L6.962,-2.394C6.867,-3.443 6.602,-4.229 6.163,-4.754C5.49,-5.568 4.618,-5.975 3.546,-5.975C2.574,-5.975 1.759,-5.65 1.097,-5C0.436,-4.35 0.07,-3.482 0,-2.394M6.938,1.022L9.122,1.292C8.777,2.568 8.139,3.558 7.208,4.262C6.277,4.967 5.087,5.318 3.639,5.318C1.815,5.318 0.37,4.757 -0.699,3.634C-1.767,2.511 -2.301,0.936 -2.301,-1.091C-2.301,-3.188 -1.761,-4.816 -0.681,-5.975C0.399,-7.133 1.8,-7.712 3.522,-7.712C5.189,-7.712 6.551,-7.144 7.607,-6.01C8.663,-4.875 9.192,-3.278 9.192,-1.22C9.192,-1.095 9.188,-0.907 9.18,-0.656L-0.118,-0.656C-0.039,0.713 0.348,1.762 1.045,2.489C1.741,3.217 2.61,3.581 3.651,3.581C4.426,3.581 5.087,3.378 5.635,2.971C6.182,2.563 6.617,1.914 6.938,1.022" style="fill:rgb(73,134,46);fill-rule:nonzero;"/>
            </g>
        </g>
    </g>
    <defs>
        <radialGradient id="_Radial1" cx="0" cy="0" r="1" gradientUnits="userSpaceOnUse" gradientTransform="matrix(1,0,0,-1,0,-1.03982e-05)"><stop offset="0" style="stop-color:rgb(179,227,4);stop-opacity:1"/><stop offset="1" style="stop-color:rgb(147,186,7);stop-opacity:1"/></radialGradient>
    </defs>
</svg>
